<?xml version="1.0" encoding="utf-8" standalone="no"?>
<!DOCTYPE svg PUBLIC "-//W3C//DTD SVG 1.1//EN"
  "http://www.w3.org/Graphics/SVG/1.1/DTD/svg11.dtd">
<!-- Created with matplotlib (https://matplotlib.org/) -->
<svg height="432pt" version="1.1" viewBox="0 0 720 432" width="720pt" xmlns="http://www.w3.org/2000/svg" xmlns:xlink="http://www.w3.org/1999/xlink">
 <defs>
  <style type="text/css">
*{stroke-linecap:butt;stroke-linejoin:round;}
  </style>
 </defs>
 <g id="figure_1">
  <g id="patch_1">
   <path d="M 0 432 
L 720 432 
L 720 0 
L 0 0 
z
" style="fill:#ffffff;"/>
  </g>
  <g id="axes_1">
   <g id="patch_2">
    <path d="M 62.25 373 
L 709.2 373 
L 709.2 10.8 
L 62.25 10.8 
z
" style="fill:#e5e5e5;"/>
   </g>
   <g id="matplotlib.axis_1">
    <g id="xtick_1">
     <g id="line2d_1">
      <path clip-path="url(#pa28ea9b819)" d="M 98.819446 373 
L 98.819446 10.8 
" style="fill:none;stroke:#ffffff;stroke-linecap:round;stroke-width:1.6;"/>
     </g>
     <g id="line2d_2"/>
     <g id="text_1">
      <!-- 25000 -->
      <defs>
       <path d="M 50.34375 8.453125 
L 50.34375 0 
L 3.03125 0 
Q 2.9375 3.171875 4.046875 6.109375 
Q 5.859375 10.9375 9.828125 15.625 
Q 13.8125 20.3125 21.34375 26.46875 
Q 33.015625 36.03125 37.109375 41.625 
Q 41.21875 47.21875 41.21875 52.203125 
Q 41.21875 57.421875 37.46875 61 
Q 33.734375 64.59375 27.734375 64.59375 
Q 21.390625 64.59375 17.578125 60.78125 
Q 13.765625 56.984375 13.71875 50.25 
L 4.6875 51.171875 
Q 5.609375 61.28125 11.65625 66.578125 
Q 17.71875 71.875 27.9375 71.875 
Q 38.234375 71.875 44.234375 66.15625 
Q 50.25 60.453125 50.25 52 
Q 50.25 47.703125 48.484375 43.546875 
Q 46.734375 39.40625 42.65625 34.8125 
Q 38.578125 30.21875 29.109375 22.21875 
Q 21.1875 15.578125 18.9375 13.203125 
Q 16.703125 10.84375 15.234375 8.453125 
z
" id="ArialMT-50"/>
       <path d="M 4.15625 18.75 
L 13.375 19.53125 
Q 14.40625 12.796875 18.140625 9.390625 
Q 21.875 6 27.15625 6 
Q 33.5 6 37.890625 10.78125 
Q 42.28125 15.578125 42.28125 23.484375 
Q 42.28125 31 38.0625 35.34375 
Q 33.84375 39.703125 27 39.703125 
Q 22.75 39.703125 19.328125 37.765625 
Q 15.921875 35.84375 13.96875 32.765625 
L 5.71875 33.84375 
L 12.640625 70.609375 
L 48.25 70.609375 
L 48.25 62.203125 
L 19.671875 62.203125 
L 15.828125 42.96875 
Q 22.265625 47.46875 29.34375 47.46875 
Q 38.71875 47.46875 45.15625 40.96875 
Q 51.609375 34.46875 51.609375 24.265625 
Q 51.609375 14.546875 45.953125 7.46875 
Q 39.0625 -1.21875 27.15625 -1.21875 
Q 17.390625 -1.21875 11.203125 4.25 
Q 5.03125 9.71875 4.15625 18.75 
z
" id="ArialMT-53"/>
       <path d="M 4.15625 35.296875 
Q 4.15625 48 6.765625 55.734375 
Q 9.375 63.484375 14.515625 67.671875 
Q 19.671875 71.875 27.484375 71.875 
Q 33.25 71.875 37.59375 69.546875 
Q 41.9375 67.234375 44.765625 62.859375 
Q 47.609375 58.5 49.21875 52.21875 
Q 50.828125 45.953125 50.828125 35.296875 
Q 50.828125 22.703125 48.234375 14.96875 
Q 45.65625 7.234375 40.5 3 
Q 35.359375 -1.21875 27.484375 -1.21875 
Q 17.140625 -1.21875 11.234375 6.203125 
Q 4.15625 15.140625 4.15625 35.296875 
z
M 13.1875 35.296875 
Q 13.1875 17.671875 17.3125 11.828125 
Q 21.4375 6 27.484375 6 
Q 33.546875 6 37.671875 11.859375 
Q 41.796875 17.71875 41.796875 35.296875 
Q 41.796875 52.984375 37.671875 58.78125 
Q 33.546875 64.59375 27.390625 64.59375 
Q 21.34375 64.59375 17.71875 59.46875 
Q 13.1875 52.9375 13.1875 35.296875 
z
" id="ArialMT-48"/>
      </defs>
      <g style="fill:#555555;" transform="translate(76.575696 395.6525)scale(0.16 -0.16)">
       <use xlink:href="#ArialMT-50"/>
       <use x="55.615234" xlink:href="#ArialMT-53"/>
       <use x="111.230469" xlink:href="#ArialMT-48"/>
       <use x="166.845703" xlink:href="#ArialMT-48"/>
       <use x="222.460938" xlink:href="#ArialMT-48"/>
      </g>
     </g>
    </g>
    <g id="xtick_2">
     <g id="line2d_3">
      <path clip-path="url(#pa28ea9b819)" d="M 207.343747 373 
L 207.343747 10.8 
" style="fill:none;stroke:#ffffff;stroke-linecap:round;stroke-width:1.6;"/>
     </g>
     <g id="line2d_4"/>
     <g id="text_2">
      <!-- 30000 -->
      <defs>
       <path d="M 4.203125 18.890625 
L 12.984375 20.0625 
Q 14.5 12.59375 18.140625 9.296875 
Q 21.78125 6 27 6 
Q 33.203125 6 37.46875 10.296875 
Q 41.75 14.59375 41.75 20.953125 
Q 41.75 27 37.796875 30.921875 
Q 33.84375 34.859375 27.734375 34.859375 
Q 25.25 34.859375 21.53125 33.890625 
L 22.515625 41.609375 
Q 23.390625 41.5 23.921875 41.5 
Q 29.546875 41.5 34.03125 44.421875 
Q 38.53125 47.359375 38.53125 53.46875 
Q 38.53125 58.296875 35.25 61.46875 
Q 31.984375 64.65625 26.8125 64.65625 
Q 21.6875 64.65625 18.265625 61.421875 
Q 14.84375 58.203125 13.875 51.765625 
L 5.078125 53.328125 
Q 6.6875 62.15625 12.390625 67.015625 
Q 18.109375 71.875 26.609375 71.875 
Q 32.46875 71.875 37.390625 69.359375 
Q 42.328125 66.84375 44.9375 62.5 
Q 47.5625 58.15625 47.5625 53.265625 
Q 47.5625 48.640625 45.0625 44.828125 
Q 42.578125 41.015625 37.703125 38.765625 
Q 44.046875 37.3125 47.5625 32.6875 
Q 51.078125 28.078125 51.078125 21.140625 
Q 51.078125 11.765625 44.234375 5.25 
Q 37.40625 -1.265625 26.953125 -1.265625 
Q 17.53125 -1.265625 11.296875 4.34375 
Q 5.078125 9.96875 4.203125 18.890625 
z
" id="ArialMT-51"/>
      </defs>
      <g style="fill:#555555;" transform="translate(185.099997 395.6525)scale(0.16 -0.16)">
       <use xlink:href="#ArialMT-51"/>
       <use x="55.615234" xlink:href="#ArialMT-48"/>
       <use x="111.230469" xlink:href="#ArialMT-48"/>
       <use x="166.845703" xlink:href="#ArialMT-48"/>
       <use x="222.460938" xlink:href="#ArialMT-48"/>
      </g>
     </g>
    </g>
    <g id="xtick_3">
     <g id="line2d_5">
      <path clip-path="url(#pa28ea9b819)" d="M 315.868048 373 
L 315.868048 10.8 
" style="fill:none;stroke:#ffffff;stroke-linecap:round;stroke-width:1.6;"/>
     </g>
     <g id="line2d_6"/>
     <g id="text_3">
      <!-- 35000 -->
      <g style="fill:#555555;" transform="translate(293.624298 395.6525)scale(0.16 -0.16)">
       <use xlink:href="#ArialMT-51"/>
       <use x="55.615234" xlink:href="#ArialMT-53"/>
       <use x="111.230469" xlink:href="#ArialMT-48"/>
       <use x="166.845703" xlink:href="#ArialMT-48"/>
       <use x="222.460938" xlink:href="#ArialMT-48"/>
      </g>
     </g>
    </g>
    <g id="xtick_4">
     <g id="line2d_7">
      <path clip-path="url(#pa28ea9b819)" d="M 424.392349 373 
L 424.392349 10.8 
" style="fill:none;stroke:#ffffff;stroke-linecap:round;stroke-width:1.6;"/>
     </g>
     <g id="line2d_8"/>
     <g id="text_4">
      <!-- 40000 -->
      <defs>
       <path d="M 32.328125 0 
L 32.328125 17.140625 
L 1.265625 17.140625 
L 1.265625 25.203125 
L 33.9375 71.578125 
L 41.109375 71.578125 
L 41.109375 25.203125 
L 50.78125 25.203125 
L 50.78125 17.140625 
L 41.109375 17.140625 
L 41.109375 0 
z
M 32.328125 25.203125 
L 32.328125 57.46875 
L 9.90625 25.203125 
z
" id="ArialMT-52"/>
      </defs>
      <g style="fill:#555555;" transform="translate(402.148599 395.6525)scale(0.16 -0.16)">
       <use xlink:href="#ArialMT-52"/>
       <use x="55.615234" xlink:href="#ArialMT-48"/>
       <use x="111.230469" xlink:href="#ArialMT-48"/>
       <use x="166.845703" xlink:href="#ArialMT-48"/>
       <use x="222.460938" xlink:href="#ArialMT-48"/>
      </g>
     </g>
    </g>
    <g id="xtick_5">
     <g id="line2d_9">
      <path clip-path="url(#pa28ea9b819)" d="M 532.91665 373 
L 532.91665 10.8 
" style="fill:none;stroke:#ffffff;stroke-linecap:round;stroke-width:1.6;"/>
     </g>
     <g id="line2d_10"/>
     <g id="text_5">
      <!-- 45000 -->
      <g style="fill:#555555;" transform="translate(510.6729 395.6525)scale(0.16 -0.16)">
       <use xlink:href="#ArialMT-52"/>
       <use x="55.615234" xlink:href="#ArialMT-53"/>
       <use x="111.230469" xlink:href="#ArialMT-48"/>
       <use x="166.845703" xlink:href="#ArialMT-48"/>
       <use x="222.460938" xlink:href="#ArialMT-48"/>
      </g>
     </g>
    </g>
    <g id="xtick_6">
     <g id="line2d_11">
      <path clip-path="url(#pa28ea9b819)" d="M 641.440951 373 
L 641.440951 10.8 
" style="fill:none;stroke:#ffffff;stroke-linecap:round;stroke-width:1.6;"/>
     </g>
     <g id="line2d_12"/>
     <g id="text_6">
      <!-- 50000 -->
      <g style="fill:#555555;" transform="translate(619.197201 395.6525)scale(0.16 -0.16)">
       <use xlink:href="#ArialMT-53"/>
       <use x="55.615234" xlink:href="#ArialMT-48"/>
       <use x="111.230469" xlink:href="#ArialMT-48"/>
       <use x="166.845703" xlink:href="#ArialMT-48"/>
       <use x="222.460938" xlink:href="#ArialMT-48"/>
      </g>
     </g>
    </g>
    <g id="text_7">
     <!-- Skill cluster median salary -->
     <defs>
      <path d="M 4.5 23 
L 13.421875 23.78125 
Q 14.0625 18.40625 16.375 14.96875 
Q 18.703125 11.53125 23.578125 9.40625 
Q 28.46875 7.28125 34.578125 7.28125 
Q 39.984375 7.28125 44.140625 8.890625 
Q 48.296875 10.5 50.3125 13.296875 
Q 52.34375 16.109375 52.34375 19.4375 
Q 52.34375 22.796875 50.390625 25.3125 
Q 48.4375 27.828125 43.953125 29.546875 
Q 41.0625 30.671875 31.203125 33.03125 
Q 21.34375 35.40625 17.390625 37.5 
Q 12.25 40.1875 9.734375 44.15625 
Q 7.234375 48.140625 7.234375 53.078125 
Q 7.234375 58.5 10.296875 63.203125 
Q 13.375 67.921875 19.28125 70.359375 
Q 25.203125 72.796875 32.421875 72.796875 
Q 40.375 72.796875 46.453125 70.234375 
Q 52.546875 67.671875 55.8125 62.6875 
Q 59.078125 57.71875 59.328125 51.421875 
L 50.25 50.734375 
Q 49.515625 57.515625 45.28125 60.984375 
Q 41.0625 64.453125 32.8125 64.453125 
Q 24.21875 64.453125 20.28125 61.296875 
Q 16.359375 58.15625 16.359375 53.71875 
Q 16.359375 49.859375 19.140625 47.359375 
Q 21.875 44.875 33.421875 42.265625 
Q 44.96875 39.65625 49.265625 37.703125 
Q 55.515625 34.8125 58.484375 30.390625 
Q 61.46875 25.984375 61.46875 20.21875 
Q 61.46875 14.5 58.203125 9.4375 
Q 54.9375 4.390625 48.796875 1.578125 
Q 42.671875 -1.21875 35.015625 -1.21875 
Q 25.296875 -1.21875 18.71875 1.609375 
Q 12.15625 4.4375 8.421875 10.125 
Q 4.6875 15.828125 4.5 23 
z
" id="ArialMT-83"/>
      <path d="M 6.640625 0 
L 6.640625 71.578125 
L 15.4375 71.578125 
L 15.4375 30.765625 
L 36.234375 51.859375 
L 47.609375 51.859375 
L 27.78125 32.625 
L 49.609375 0 
L 38.765625 0 
L 21.625 26.515625 
L 15.4375 20.5625 
L 15.4375 0 
z
" id="ArialMT-107"/>
      <path d="M 6.640625 61.46875 
L 6.640625 71.578125 
L 15.4375 71.578125 
L 15.4375 61.46875 
z
M 6.640625 0 
L 6.640625 51.859375 
L 15.4375 51.859375 
L 15.4375 0 
z
" id="ArialMT-105"/>
      <path d="M 6.390625 0 
L 6.390625 71.578125 
L 15.1875 71.578125 
L 15.1875 0 
z
" id="ArialMT-108"/>
      <path id="ArialMT-32"/>
      <path d="M 40.4375 19 
L 49.078125 17.875 
Q 47.65625 8.9375 41.8125 3.875 
Q 35.984375 -1.171875 27.484375 -1.171875 
Q 16.84375 -1.171875 10.375 5.78125 
Q 3.90625 12.75 3.90625 25.734375 
Q 3.90625 34.125 6.6875 40.421875 
Q 9.46875 46.734375 15.15625 49.875 
Q 20.84375 53.03125 27.546875 53.03125 
Q 35.984375 53.03125 41.359375 48.75 
Q 46.734375 44.484375 48.25 36.625 
L 39.703125 35.296875 
Q 38.484375 40.53125 35.375 43.15625 
Q 32.28125 45.796875 27.875 45.796875 
Q 21.234375 45.796875 17.078125 41.03125 
Q 12.9375 36.28125 12.9375 25.984375 
Q 12.9375 15.53125 16.9375 10.796875 
Q 20.953125 6.0625 27.390625 6.0625 
Q 32.5625 6.0625 36.03125 9.234375 
Q 39.5 12.40625 40.4375 19 
z
" id="ArialMT-99"/>
      <path d="M 40.578125 0 
L 40.578125 7.625 
Q 34.515625 -1.171875 24.125 -1.171875 
Q 19.53125 -1.171875 15.546875 0.578125 
Q 11.578125 2.34375 9.640625 5 
Q 7.71875 7.671875 6.9375 11.53125 
Q 6.390625 14.109375 6.390625 19.734375 
L 6.390625 51.859375 
L 15.1875 51.859375 
L 15.1875 23.09375 
Q 15.1875 16.21875 15.71875 13.8125 
Q 16.546875 10.359375 19.234375 8.375 
Q 21.921875 6.390625 25.875 6.390625 
Q 29.828125 6.390625 33.296875 8.421875 
Q 36.765625 10.453125 38.203125 13.9375 
Q 39.65625 17.4375 39.65625 24.078125 
L 39.65625 51.859375 
L 48.4375 51.859375 
L 48.4375 0 
z
" id="ArialMT-117"/>
      <path d="M 3.078125 15.484375 
L 11.765625 16.84375 
Q 12.5 11.625 15.84375 8.84375 
Q 19.1875 6.0625 25.203125 6.0625 
Q 31.25 6.0625 34.171875 8.515625 
Q 37.109375 10.984375 37.109375 14.3125 
Q 37.109375 17.28125 34.515625 19 
Q 32.71875 20.171875 25.53125 21.96875 
Q 15.875 24.421875 12.140625 26.203125 
Q 8.40625 27.984375 6.46875 31.125 
Q 4.546875 34.28125 4.546875 38.09375 
Q 4.546875 41.546875 6.125 44.5 
Q 7.71875 47.46875 10.453125 49.421875 
Q 12.5 50.921875 16.03125 51.96875 
Q 19.578125 53.03125 23.640625 53.03125 
Q 29.734375 53.03125 34.34375 51.265625 
Q 38.96875 49.515625 41.15625 46.5 
Q 43.359375 43.5 44.1875 38.484375 
L 35.59375 37.3125 
Q 35.015625 41.3125 32.203125 43.546875 
Q 29.390625 45.796875 24.265625 45.796875 
Q 18.21875 45.796875 15.625 43.796875 
Q 13.03125 41.796875 13.03125 39.109375 
Q 13.03125 37.40625 14.109375 36.03125 
Q 15.1875 34.625 17.484375 33.6875 
Q 18.796875 33.203125 25.25 31.453125 
Q 34.578125 28.953125 38.25 27.359375 
Q 41.9375 25.78125 44.03125 22.75 
Q 46.140625 19.734375 46.140625 15.234375 
Q 46.140625 10.84375 43.578125 6.953125 
Q 41.015625 3.078125 36.171875 0.953125 
Q 31.34375 -1.171875 25.25 -1.171875 
Q 15.140625 -1.171875 9.84375 3.03125 
Q 4.546875 7.234375 3.078125 15.484375 
z
" id="ArialMT-115"/>
      <path d="M 25.78125 7.859375 
L 27.046875 0.09375 
Q 23.34375 -0.6875 20.40625 -0.6875 
Q 15.625 -0.6875 12.984375 0.828125 
Q 10.359375 2.34375 9.28125 4.8125 
Q 8.203125 7.28125 8.203125 15.1875 
L 8.203125 45.015625 
L 1.765625 45.015625 
L 1.765625 51.859375 
L 8.203125 51.859375 
L 8.203125 64.703125 
L 16.9375 69.96875 
L 16.9375 51.859375 
L 25.78125 51.859375 
L 25.78125 45.015625 
L 16.9375 45.015625 
L 16.9375 14.703125 
Q 16.9375 10.9375 17.40625 9.859375 
Q 17.875 8.796875 18.921875 8.15625 
Q 19.96875 7.515625 21.921875 7.515625 
Q 23.390625 7.515625 25.78125 7.859375 
z
" id="ArialMT-116"/>
      <path d="M 42.09375 16.703125 
L 51.171875 15.578125 
Q 49.03125 7.625 43.21875 3.21875 
Q 37.40625 -1.171875 28.375 -1.171875 
Q 17 -1.171875 10.328125 5.828125 
Q 3.65625 12.84375 3.65625 25.484375 
Q 3.65625 38.578125 10.390625 45.796875 
Q 17.140625 53.03125 27.875 53.03125 
Q 38.28125 53.03125 44.875 45.953125 
Q 51.46875 38.875 51.46875 26.03125 
Q 51.46875 25.25 51.421875 23.6875 
L 12.75 23.6875 
Q 13.234375 15.140625 17.578125 10.59375 
Q 21.921875 6.0625 28.421875 6.0625 
Q 33.25 6.0625 36.671875 8.59375 
Q 40.09375 11.140625 42.09375 16.703125 
z
M 13.234375 30.90625 
L 42.1875 30.90625 
Q 41.609375 37.453125 38.875 40.71875 
Q 34.671875 45.796875 27.984375 45.796875 
Q 21.921875 45.796875 17.796875 41.75 
Q 13.671875 37.703125 13.234375 30.90625 
z
" id="ArialMT-101"/>
      <path d="M 6.5 0 
L 6.5 51.859375 
L 14.40625 51.859375 
L 14.40625 44 
Q 17.4375 49.515625 20 51.265625 
Q 22.5625 53.03125 25.640625 53.03125 
Q 30.078125 53.03125 34.671875 50.203125 
L 31.640625 42.046875 
Q 28.421875 43.953125 25.203125 43.953125 
Q 22.3125 43.953125 20.015625 42.21875 
Q 17.71875 40.484375 16.75 37.40625 
Q 15.28125 32.71875 15.28125 27.15625 
L 15.28125 0 
z
" id="ArialMT-114"/>
      <path d="M 6.59375 0 
L 6.59375 51.859375 
L 14.453125 51.859375 
L 14.453125 44.578125 
Q 16.890625 48.390625 20.9375 50.703125 
Q 25 53.03125 30.171875 53.03125 
Q 35.9375 53.03125 39.625 50.640625 
Q 43.3125 48.25 44.828125 43.953125 
Q 50.984375 53.03125 60.84375 53.03125 
Q 68.5625 53.03125 72.703125 48.75 
Q 76.859375 44.484375 76.859375 35.59375 
L 76.859375 0 
L 68.109375 0 
L 68.109375 32.671875 
Q 68.109375 37.9375 67.25 40.25 
Q 66.40625 42.578125 64.15625 43.984375 
Q 61.921875 45.40625 58.890625 45.40625 
Q 53.421875 45.40625 49.796875 41.765625 
Q 46.1875 38.140625 46.1875 30.125 
L 46.1875 0 
L 37.40625 0 
L 37.40625 33.6875 
Q 37.40625 39.546875 35.25 42.46875 
Q 33.109375 45.40625 28.21875 45.40625 
Q 24.515625 45.40625 21.359375 43.453125 
Q 18.21875 41.5 16.796875 37.734375 
Q 15.375 33.984375 15.375 26.90625 
L 15.375 0 
z
" id="ArialMT-109"/>
      <path d="M 40.234375 0 
L 40.234375 6.546875 
Q 35.296875 -1.171875 25.734375 -1.171875 
Q 19.53125 -1.171875 14.328125 2.25 
Q 9.125 5.671875 6.265625 11.796875 
Q 3.421875 17.921875 3.421875 25.875 
Q 3.421875 33.640625 6 39.96875 
Q 8.59375 46.296875 13.765625 49.65625 
Q 18.953125 53.03125 25.34375 53.03125 
Q 30.03125 53.03125 33.6875 51.046875 
Q 37.359375 49.078125 39.65625 45.90625 
L 39.65625 71.578125 
L 48.390625 71.578125 
L 48.390625 0 
z
M 12.453125 25.875 
Q 12.453125 15.921875 16.640625 10.984375 
Q 20.84375 6.0625 26.5625 6.0625 
Q 32.328125 6.0625 36.34375 10.765625 
Q 40.375 15.484375 40.375 25.140625 
Q 40.375 35.796875 36.265625 40.765625 
Q 32.171875 45.75 26.171875 45.75 
Q 20.3125 45.75 16.375 40.96875 
Q 12.453125 36.1875 12.453125 25.875 
z
" id="ArialMT-100"/>
      <path d="M 40.4375 6.390625 
Q 35.546875 2.25 31.03125 0.53125 
Q 26.515625 -1.171875 21.34375 -1.171875 
Q 12.796875 -1.171875 8.203125 3 
Q 3.609375 7.171875 3.609375 13.671875 
Q 3.609375 17.484375 5.34375 20.625 
Q 7.078125 23.78125 9.890625 25.6875 
Q 12.703125 27.59375 16.21875 28.5625 
Q 18.796875 29.25 24.03125 29.890625 
Q 34.671875 31.15625 39.703125 32.90625 
Q 39.75 34.71875 39.75 35.203125 
Q 39.75 40.578125 37.25 42.78125 
Q 33.890625 45.75 27.25 45.75 
Q 21.046875 45.75 18.09375 43.578125 
Q 15.140625 41.40625 13.71875 35.890625 
L 5.125 37.0625 
Q 6.296875 42.578125 8.984375 45.96875 
Q 11.671875 49.359375 16.75 51.1875 
Q 21.828125 53.03125 28.515625 53.03125 
Q 35.15625 53.03125 39.296875 51.46875 
Q 43.453125 49.90625 45.40625 47.53125 
Q 47.359375 45.171875 48.140625 41.546875 
Q 48.578125 39.3125 48.578125 33.453125 
L 48.578125 21.734375 
Q 48.578125 9.46875 49.140625 6.21875 
Q 49.703125 2.984375 51.375 0 
L 42.1875 0 
Q 40.828125 2.734375 40.4375 6.390625 
z
M 39.703125 26.03125 
Q 34.90625 24.078125 25.34375 22.703125 
Q 19.921875 21.921875 17.671875 20.9375 
Q 15.4375 19.96875 14.203125 18.09375 
Q 12.984375 16.21875 12.984375 13.921875 
Q 12.984375 10.40625 15.640625 8.0625 
Q 18.3125 5.71875 23.4375 5.71875 
Q 28.515625 5.71875 32.46875 7.9375 
Q 36.421875 10.15625 38.28125 14.015625 
Q 39.703125 17 39.703125 22.796875 
z
" id="ArialMT-97"/>
      <path d="M 6.59375 0 
L 6.59375 51.859375 
L 14.5 51.859375 
L 14.5 44.484375 
Q 20.21875 53.03125 31 53.03125 
Q 35.6875 53.03125 39.625 51.34375 
Q 43.5625 49.65625 45.515625 46.921875 
Q 47.46875 44.1875 48.25 40.4375 
Q 48.734375 37.984375 48.734375 31.890625 
L 48.734375 0 
L 39.9375 0 
L 39.9375 31.546875 
Q 39.9375 36.921875 38.90625 39.578125 
Q 37.890625 42.234375 35.28125 43.8125 
Q 32.671875 45.40625 29.15625 45.40625 
Q 23.53125 45.40625 19.453125 41.84375 
Q 15.375 38.28125 15.375 28.328125 
L 15.375 0 
z
" id="ArialMT-110"/>
      <path d="M 6.203125 -19.96875 
L 5.21875 -11.71875 
Q 8.109375 -12.5 10.25 -12.5 
Q 13.1875 -12.5 14.9375 -11.515625 
Q 16.703125 -10.546875 17.828125 -8.796875 
Q 18.65625 -7.46875 20.515625 -2.25 
Q 20.75 -1.515625 21.296875 -0.09375 
L 1.609375 51.859375 
L 11.078125 51.859375 
L 21.875 21.828125 
Q 23.96875 16.109375 25.640625 9.8125 
Q 27.15625 15.875 29.25 21.625 
L 40.328125 51.859375 
L 49.125 51.859375 
L 29.390625 -0.875 
Q 26.21875 -9.421875 24.46875 -12.640625 
Q 22.125 -17 19.09375 -19.015625 
Q 16.0625 -21.046875 11.859375 -21.046875 
Q 9.328125 -21.046875 6.203125 -19.96875 
z
" id="ArialMT-121"/>
     </defs>
     <g style="fill:#555555;" transform="translate(281.693438 415.935938)scale(0.18 -0.18)">
      <use xlink:href="#ArialMT-83"/>
      <use x="66.699219" xlink:href="#ArialMT-107"/>
      <use x="116.699219" xlink:href="#ArialMT-105"/>
      <use x="138.916016" xlink:href="#ArialMT-108"/>
      <use x="161.132812" xlink:href="#ArialMT-108"/>
      <use x="183.349609" xlink:href="#ArialMT-32"/>
      <use x="211.132812" xlink:href="#ArialMT-99"/>
      <use x="261.132812" xlink:href="#ArialMT-108"/>
      <use x="283.349609" xlink:href="#ArialMT-117"/>
      <use x="338.964844" xlink:href="#ArialMT-115"/>
      <use x="388.964844" xlink:href="#ArialMT-116"/>
      <use x="416.748047" xlink:href="#ArialMT-101"/>
      <use x="472.363281" xlink:href="#ArialMT-114"/>
      <use x="505.664062" xlink:href="#ArialMT-32"/>
      <use x="533.447266" xlink:href="#ArialMT-109"/>
      <use x="616.748047" xlink:href="#ArialMT-101"/>
      <use x="672.363281" xlink:href="#ArialMT-100"/>
      <use x="727.978516" xlink:href="#ArialMT-105"/>
      <use x="750.195312" xlink:href="#ArialMT-97"/>
      <use x="805.810547" xlink:href="#ArialMT-110"/>
      <use x="861.425781" xlink:href="#ArialMT-32"/>
      <use x="889.208984" xlink:href="#ArialMT-115"/>
      <use x="939.208984" xlink:href="#ArialMT-97"/>
      <use x="994.824219" xlink:href="#ArialMT-108"/>
      <use x="1017.041016" xlink:href="#ArialMT-97"/>
      <use x="1072.65625" xlink:href="#ArialMT-114"/>
      <use x="1105.957031" xlink:href="#ArialMT-121"/>
     </g>
    </g>
   </g>
   <g id="matplotlib.axis_2">
    <g id="ytick_1">
     <g id="line2d_13">
      <path clip-path="url(#pa28ea9b819)" d="M 62.25 278.774617 
L 709.2 278.774617 
" style="fill:none;stroke:#ffffff;stroke-linecap:round;stroke-width:1.6;"/>
     </g>
     <g id="line2d_14"/>
     <g id="text_8">
      <!-- -10x -->
      <defs>
       <path d="M 3.171875 21.484375 
L 3.171875 30.328125 
L 30.171875 30.328125 
L 30.171875 21.484375 
z
" id="ArialMT-45"/>
       <path d="M 37.25 0 
L 28.46875 0 
L 28.46875 56 
Q 25.296875 52.984375 20.140625 49.953125 
Q 14.984375 46.921875 10.890625 45.40625 
L 10.890625 53.90625 
Q 18.265625 57.375 23.78125 62.296875 
Q 29.296875 67.234375 31.59375 71.875 
L 37.25 71.875 
z
" id="ArialMT-49"/>
       <path d="M 0.734375 0 
L 19.671875 26.953125 
L 2.15625 51.859375 
L 13.140625 51.859375 
L 21.09375 39.703125 
Q 23.34375 36.234375 24.703125 33.890625 
Q 26.859375 37.109375 28.65625 39.59375 
L 37.40625 51.859375 
L 47.90625 51.859375 
L 29.984375 27.4375 
L 49.265625 0 
L 38.484375 0 
L 27.828125 16.109375 
L 25 20.453125 
L 11.375 0 
z
" id="ArialMT-120"/>
      </defs>
      <g style="fill:#555555;" transform="translate(19.9275 284.500867)scale(0.16 -0.16)">
       <use xlink:href="#ArialMT-45"/>
       <use x="33.300781" xlink:href="#ArialMT-49"/>
       <use x="88.916016" xlink:href="#ArialMT-48"/>
       <use x="144.53125" xlink:href="#ArialMT-120"/>
      </g>
     </g>
    </g>
    <g id="ytick_2">
     <g id="line2d_15">
      <path clip-path="url(#pa28ea9b819)" d="M 62.25 252.622751 
L 709.2 252.622751 
" style="fill:none;stroke:#ffffff;stroke-linecap:round;stroke-width:1.6;"/>
     </g>
     <g id="line2d_16"/>
     <g id="text_9">
      <!-- -5x -->
      <g style="fill:#555555;" transform="translate(28.825 258.349001)scale(0.16 -0.16)">
       <use xlink:href="#ArialMT-45"/>
       <use x="33.300781" xlink:href="#ArialMT-53"/>
       <use x="88.916016" xlink:href="#ArialMT-120"/>
      </g>
     </g>
    </g>
    <g id="ytick_3">
     <g id="line2d_17">
      <path clip-path="url(#pa28ea9b819)" d="M 62.25 218.051865 
L 709.2 218.051865 
" style="fill:none;stroke:#ffffff;stroke-linecap:round;stroke-width:1.6;"/>
     </g>
     <g id="line2d_18"/>
     <g id="text_10">
      <!-- -2x -->
      <g style="fill:#555555;" transform="translate(28.825 223.778115)scale(0.16 -0.16)">
       <use xlink:href="#ArialMT-45"/>
       <use x="33.300781" xlink:href="#ArialMT-50"/>
       <use x="88.916016" xlink:href="#ArialMT-120"/>
      </g>
     </g>
    </g>
    <g id="ytick_4">
     <g id="line2d_19">
      <path clip-path="url(#pa28ea9b819)" d="M 62.25 191.9 
L 709.2 191.9 
" style="fill:none;stroke:#ffffff;stroke-linecap:round;stroke-width:1.6;"/>
     </g>
     <g id="line2d_20"/>
     <g id="text_11">
      <!-- 1x -->
      <g style="fill:#555555;" transform="translate(34.1525 197.62625)scale(0.16 -0.16)">
       <use xlink:href="#ArialMT-49"/>
       <use x="55.615234" xlink:href="#ArialMT-120"/>
      </g>
     </g>
    </g>
    <g id="ytick_5">
     <g id="line2d_21">
      <path clip-path="url(#pa28ea9b819)" d="M 62.25 165.748135 
L 709.2 165.748135 
" style="fill:none;stroke:#ffffff;stroke-linecap:round;stroke-width:1.6;"/>
     </g>
     <g id="line2d_22"/>
     <g id="text_12">
      <!-- 2x -->
      <g style="fill:#555555;" transform="translate(34.1525 171.474385)scale(0.16 -0.16)">
       <use xlink:href="#ArialMT-50"/>
       <use x="55.615234" xlink:href="#ArialMT-120"/>
      </g>
     </g>
    </g>
    <g id="ytick_6">
     <g id="line2d_23">
      <path clip-path="url(#pa28ea9b819)" d="M 62.25 131.177249 
L 709.2 131.177249 
" style="fill:none;stroke:#ffffff;stroke-linecap:round;stroke-width:1.6;"/>
     </g>
     <g id="line2d_24"/>
     <g id="text_13">
      <!-- 5x -->
      <g style="fill:#555555;" transform="translate(34.1525 136.903499)scale(0.16 -0.16)">
       <use xlink:href="#ArialMT-53"/>
       <use x="55.615234" xlink:href="#ArialMT-120"/>
      </g>
     </g>
    </g>
    <g id="ytick_7">
     <g id="line2d_25">
      <path clip-path="url(#pa28ea9b819)" d="M 62.25 105.025383 
L 709.2 105.025383 
" style="fill:none;stroke:#ffffff;stroke-linecap:round;stroke-width:1.6;"/>
     </g>
     <g id="line2d_26"/>
     <g id="text_14">
      <!-- 10x -->
      <g style="fill:#555555;" transform="translate(25.255 110.751633)scale(0.16 -0.16)">
       <use xlink:href="#ArialMT-49"/>
       <use x="55.615234" xlink:href="#ArialMT-48"/>
       <use x="111.230469" xlink:href="#ArialMT-120"/>
      </g>
     </g>
    </g>
    <g id="text_15">
     <!-- Representation factor -->
     <defs>
      <path d="M 7.859375 0 
L 7.859375 71.578125 
L 39.59375 71.578125 
Q 49.171875 71.578125 54.140625 69.640625 
Q 59.125 67.71875 62.109375 62.828125 
Q 65.09375 57.953125 65.09375 52.046875 
Q 65.09375 44.4375 60.15625 39.203125 
Q 55.21875 33.984375 44.921875 32.5625 
Q 48.6875 30.765625 50.640625 29 
Q 54.78125 25.203125 58.5 19.484375 
L 70.953125 0 
L 59.03125 0 
L 49.5625 14.890625 
Q 45.40625 21.34375 42.71875 24.75 
Q 40.046875 28.171875 37.921875 29.53125 
Q 35.796875 30.90625 33.59375 31.453125 
Q 31.984375 31.78125 28.328125 31.78125 
L 17.328125 31.78125 
L 17.328125 0 
z
M 17.328125 39.984375 
L 37.703125 39.984375 
Q 44.1875 39.984375 47.84375 41.328125 
Q 51.515625 42.671875 53.421875 45.625 
Q 55.328125 48.578125 55.328125 52.046875 
Q 55.328125 57.125 51.640625 60.390625 
Q 47.953125 63.671875 39.984375 63.671875 
L 17.328125 63.671875 
z
" id="ArialMT-82"/>
      <path d="M 6.59375 -19.875 
L 6.59375 51.859375 
L 14.59375 51.859375 
L 14.59375 45.125 
Q 17.4375 49.078125 21 51.046875 
Q 24.5625 53.03125 29.640625 53.03125 
Q 36.28125 53.03125 41.359375 49.609375 
Q 46.4375 46.1875 49.015625 39.953125 
Q 51.609375 33.734375 51.609375 26.3125 
Q 51.609375 18.359375 48.75 11.984375 
Q 45.90625 5.609375 40.453125 2.21875 
Q 35.015625 -1.171875 29 -1.171875 
Q 24.609375 -1.171875 21.109375 0.6875 
Q 17.625 2.546875 15.375 5.375 
L 15.375 -19.875 
z
M 14.546875 25.640625 
Q 14.546875 15.625 18.59375 10.84375 
Q 22.65625 6.0625 28.421875 6.0625 
Q 34.28125 6.0625 38.453125 11.015625 
Q 42.625 15.96875 42.625 26.375 
Q 42.625 36.28125 38.546875 41.203125 
Q 34.46875 46.140625 28.8125 46.140625 
Q 23.1875 46.140625 18.859375 40.890625 
Q 14.546875 35.640625 14.546875 25.640625 
z
" id="ArialMT-112"/>
      <path d="M 3.328125 25.921875 
Q 3.328125 40.328125 11.328125 47.265625 
Q 18.015625 53.03125 27.640625 53.03125 
Q 38.328125 53.03125 45.109375 46.015625 
Q 51.90625 39.015625 51.90625 26.65625 
Q 51.90625 16.65625 48.90625 10.90625 
Q 45.90625 5.171875 40.15625 2 
Q 34.421875 -1.171875 27.640625 -1.171875 
Q 16.75 -1.171875 10.03125 5.8125 
Q 3.328125 12.796875 3.328125 25.921875 
z
M 12.359375 25.921875 
Q 12.359375 15.96875 16.703125 11.015625 
Q 21.046875 6.0625 27.640625 6.0625 
Q 34.1875 6.0625 38.53125 11.03125 
Q 42.875 16.015625 42.875 26.21875 
Q 42.875 35.84375 38.5 40.796875 
Q 34.125 45.75 27.640625 45.75 
Q 21.046875 45.75 16.703125 40.8125 
Q 12.359375 35.890625 12.359375 25.921875 
z
" id="ArialMT-111"/>
      <path d="M 8.6875 0 
L 8.6875 45.015625 
L 0.921875 45.015625 
L 0.921875 51.859375 
L 8.6875 51.859375 
L 8.6875 57.375 
Q 8.6875 62.59375 9.625 65.140625 
Q 10.890625 68.5625 14.078125 70.671875 
Q 17.28125 72.796875 23.046875 72.796875 
Q 26.765625 72.796875 31.25 71.921875 
L 29.9375 64.265625 
Q 27.203125 64.75 24.75 64.75 
Q 20.75 64.75 19.09375 63.03125 
Q 17.4375 61.328125 17.4375 56.640625 
L 17.4375 51.859375 
L 27.546875 51.859375 
L 27.546875 45.015625 
L 17.4375 45.015625 
L 17.4375 0 
z
" id="ArialMT-102"/>
     </defs>
     <g style="fill:#555555;" transform="translate(12.35 277.942813)rotate(-90)scale(0.18 -0.18)">
      <use xlink:href="#ArialMT-82"/>
      <use x="72.216797" xlink:href="#ArialMT-101"/>
      <use x="127.832031" xlink:href="#ArialMT-112"/>
      <use x="183.447266" xlink:href="#ArialMT-114"/>
      <use x="216.748047" xlink:href="#ArialMT-101"/>
      <use x="272.363281" xlink:href="#ArialMT-115"/>
      <use x="322.363281" xlink:href="#ArialMT-101"/>
      <use x="377.978516" xlink:href="#ArialMT-110"/>
      <use x="433.59375" xlink:href="#ArialMT-116"/>
      <use x="461.376953" xlink:href="#ArialMT-97"/>
      <use x="516.992188" xlink:href="#ArialMT-116"/>
      <use x="544.775391" xlink:href="#ArialMT-105"/>
      <use x="566.992188" xlink:href="#ArialMT-111"/>
      <use x="622.607422" xlink:href="#ArialMT-110"/>
      <use x="678.222656" xlink:href="#ArialMT-32"/>
      <use x="706.005859" xlink:href="#ArialMT-102"/>
      <use x="733.789062" xlink:href="#ArialMT-97"/>
      <use x="789.404297" xlink:href="#ArialMT-99"/>
      <use x="839.404297" xlink:href="#ArialMT-116"/>
      <use x="867.1875" xlink:href="#ArialMT-111"/>
      <use x="922.802734" xlink:href="#ArialMT-114"/>
     </g>
    </g>
   </g>
   <g id="PathCollection_1">
    <defs>
     <path d="M 0 5.6 
C 1.485137 5.6 2.909647 5.009949 3.959798 3.959798 
C 5.009949 2.909647 5.6 1.485137 5.6 0 
C 5.6 -1.485137 5.009949 -2.909647 3.959798 -3.959798 
C 2.909647 -5.009949 1.485137 -5.6 0 -5.6 
C -1.485137 -5.6 -2.909647 -5.009949 -3.959798 -3.959798 
C -5.009949 -2.909647 -5.6 -1.485137 -5.6 0 
C -5.6 1.485137 -5.009949 2.909647 -3.959798 3.959798 
C -2.909647 5.009949 -1.485137 5.6 0 5.6 
z
" id="C0_0_2efa1b8d73"/>
    </defs>
    <g clip-path="url(#pa28ea9b819)">
     <use style="fill:#5dc4c8;fill-opacity:0.7;stroke:#ffffff;stroke-opacity:0.7;stroke-width:0.75;" x="585.008314" xlink:href="#C0_0_2efa1b8d73" y="277.149999"/>
    </g>
    <g clip-path="url(#pa28ea9b819)">
     <use style="fill:#5dc4c8;fill-opacity:0.7;stroke:#ffffff;stroke-opacity:0.7;stroke-width:0.75;" x="409.066909" xlink:href="#C0_0_2efa1b8d73" y="265.657392"/>
    </g>
    <g clip-path="url(#pa28ea9b819)">
     <use style="fill:#ec5d2a;fill-opacity:0.7;stroke:#ffffff;stroke-opacity:0.7;stroke-width:0.75;" x="284.396001" xlink:href="#C0_0_2efa1b8d73" y="260.395931"/>
    </g>
    <g clip-path="url(#pa28ea9b819)">
     <use style="fill:#bdd745;fill-opacity:0.7;stroke:#ffffff;stroke-opacity:0.7;stroke-width:0.75;" x="210.556066" xlink:href="#C0_0_2efa1b8d73" y="255.403228"/>
    </g>
    <g clip-path="url(#pa28ea9b819)">
     <use style="fill:#5dc4c8;fill-opacity:0.7;stroke:#ffffff;stroke-opacity:0.7;stroke-width:0.75;" x="465.088962" xlink:href="#C0_0_2efa1b8d73" y="253.323623"/>
    </g>
    <g clip-path="url(#pa28ea9b819)">
     <use style="fill:#d93183;fill-opacity:0.7;stroke:#ffffff;stroke-opacity:0.7;stroke-width:0.75;" x="250.753467" xlink:href="#C0_0_2efa1b8d73" y="252.505785"/>
    </g>
    <g clip-path="url(#pa28ea9b819)">
     <use style="fill:#bdd745;fill-opacity:0.7;stroke:#ffffff;stroke-opacity:0.7;stroke-width:0.75;" x="138.306556" xlink:href="#C0_0_2efa1b8d73" y="244.689621"/>
    </g>
    <g clip-path="url(#pa28ea9b819)">
     <use style="fill:#bdd745;fill-opacity:0.7;stroke:#ffffff;stroke-opacity:0.7;stroke-width:0.75;" x="322.158969" xlink:href="#C0_0_2efa1b8d73" y="236.21722"/>
    </g>
    <g clip-path="url(#pa28ea9b819)">
     <use style="fill:#ac30e3;fill-opacity:0.7;stroke:#ffffff;stroke-opacity:0.7;stroke-width:0.75;" x="298.103705" xlink:href="#C0_0_2efa1b8d73" y="234.823236"/>
    </g>
    <g clip-path="url(#pa28ea9b819)">
     <use style="fill:#5dc4c8;fill-opacity:0.7;stroke:#ffffff;stroke-opacity:0.7;stroke-width:0.75;" x="600.744338" xlink:href="#C0_0_2efa1b8d73" y="227.381311"/>
    </g>
    <g clip-path="url(#pa28ea9b819)">
     <use style="fill:#d93183;fill-opacity:0.7;stroke:#ffffff;stroke-opacity:0.7;stroke-width:0.75;" x="195.540373" xlink:href="#C0_0_2efa1b8d73" y="227.257085"/>
    </g>
    <g clip-path="url(#pa28ea9b819)">
     <use style="fill:#bdd745;fill-opacity:0.7;stroke:#ffffff;stroke-opacity:0.7;stroke-width:0.75;" x="208.54701" xlink:href="#C0_0_2efa1b8d73" y="223.028534"/>
    </g>
    <g clip-path="url(#pa28ea9b819)">
     <use style="fill:#bdd745;fill-opacity:0.7;stroke:#ffffff;stroke-opacity:0.7;stroke-width:0.75;" x="192.697307" xlink:href="#C0_0_2efa1b8d73" y="214.168884"/>
    </g>
    <g clip-path="url(#pa28ea9b819)">
     <use style="fill:#ac30e3;fill-opacity:0.7;stroke:#ffffff;stroke-opacity:0.7;stroke-width:0.75;" x="352.804294" xlink:href="#C0_0_2efa1b8d73" y="207.741199"/>
    </g>
    <g clip-path="url(#pa28ea9b819)">
     <use style="fill:#ac30e3;fill-opacity:0.7;stroke:#ffffff;stroke-opacity:0.7;stroke-width:0.75;" x="221.198231" xlink:href="#C0_0_2efa1b8d73" y="198.766474"/>
    </g>
    <g clip-path="url(#pa28ea9b819)">
     <use style="fill:#ec5d2a;fill-opacity:0.7;stroke:#ffffff;stroke-opacity:0.7;stroke-width:0.75;" x="569.543601" xlink:href="#C0_0_2efa1b8d73" y="198.46398"/>
    </g>
    <g clip-path="url(#pa28ea9b819)">
     <use style="fill:#d93183;fill-opacity:0.7;stroke:#ffffff;stroke-opacity:0.7;stroke-width:0.75;" x="329.433586" xlink:href="#C0_0_2efa1b8d73" y="198.06863"/>
    </g>
    <g clip-path="url(#pa28ea9b819)">
     <use style="fill:#ec5d2a;fill-opacity:0.7;stroke:#ffffff;stroke-opacity:0.7;stroke-width:0.75;" x="91.656842" xlink:href="#C0_0_2efa1b8d73" y="196.91194"/>
    </g>
    <g clip-path="url(#pa28ea9b819)">
     <use style="fill:#bdd745;fill-opacity:0.7;stroke:#ffffff;stroke-opacity:0.7;stroke-width:0.75;" x="243.124661" xlink:href="#C0_0_2efa1b8d73" y="196.480356"/>
    </g>
    <g clip-path="url(#pa28ea9b819)">
     <use style="fill:#bdd745;fill-opacity:0.7;stroke:#ffffff;stroke-opacity:0.7;stroke-width:0.75;" x="301.012156" xlink:href="#C0_0_2efa1b8d73" y="196.036227"/>
    </g>
    <g clip-path="url(#pa28ea9b819)">
     <use style="fill:#f4a93d;fill-opacity:0.7;stroke:#ffffff;stroke-opacity:0.7;stroke-width:0.75;" x="413.594181" xlink:href="#C0_0_2efa1b8d73" y="195.334965"/>
    </g>
    <g clip-path="url(#pa28ea9b819)">
     <use style="fill:#ac30e3;fill-opacity:0.7;stroke:#ffffff;stroke-opacity:0.7;stroke-width:0.75;" x="279.27908" xlink:href="#C0_0_2efa1b8d73" y="190.139401"/>
    </g>
    <g clip-path="url(#pa28ea9b819)">
     <use style="fill:#ac30e3;fill-opacity:0.7;stroke:#ffffff;stroke-opacity:0.7;stroke-width:0.75;" x="277.965936" xlink:href="#C0_0_2efa1b8d73" y="187.048736"/>
    </g>
    <g clip-path="url(#pa28ea9b819)">
     <use style="fill:#f4a93d;fill-opacity:0.7;stroke:#ffffff;stroke-opacity:0.7;stroke-width:0.75;" x="384.010456" xlink:href="#C0_0_2efa1b8d73" y="186.01448"/>
    </g>
    <g clip-path="url(#pa28ea9b819)">
     <use style="fill:#ec5d2a;fill-opacity:0.7;stroke:#ffffff;stroke-opacity:0.7;stroke-width:0.75;" x="242.071523" xlink:href="#C0_0_2efa1b8d73" y="182.922575"/>
    </g>
    <g clip-path="url(#pa28ea9b819)">
     <use style="fill:#d93183;fill-opacity:0.7;stroke:#ffffff;stroke-opacity:0.7;stroke-width:0.75;" x="156.002257" xlink:href="#C0_0_2efa1b8d73" y="172.781235"/>
    </g>
    <g clip-path="url(#pa28ea9b819)">
     <use style="fill:#d93183;fill-opacity:0.7;stroke:#ffffff;stroke-opacity:0.7;stroke-width:0.75;" x="247.602193" xlink:href="#C0_0_2efa1b8d73" y="167.867355"/>
    </g>
    <g clip-path="url(#pa28ea9b819)">
     <use style="fill:#5dc4c8;fill-opacity:0.7;stroke:#ffffff;stroke-opacity:0.7;stroke-width:0.75;" x="675.354795" xlink:href="#C0_0_2efa1b8d73" y="155.782751"/>
    </g>
    <g clip-path="url(#pa28ea9b819)">
     <use style="fill:#f4a93d;fill-opacity:0.7;stroke:#ffffff;stroke-opacity:0.7;stroke-width:0.75;" x="315.415863" xlink:href="#C0_0_2efa1b8d73" y="152.181876"/>
    </g>
    <g clip-path="url(#pa28ea9b819)">
     <use style="fill:#f4a93d;fill-opacity:0.7;stroke:#ffffff;stroke-opacity:0.7;stroke-width:0.75;" x="144.426783" xlink:href="#C0_0_2efa1b8d73" y="149.480103"/>
    </g>
    <g clip-path="url(#pa28ea9b819)">
     <use style="fill:#ec5d2a;fill-opacity:0.7;stroke:#ffffff;stroke-opacity:0.7;stroke-width:0.75;" x="299.046781" xlink:href="#C0_0_2efa1b8d73" y="137.936819"/>
    </g>
   </g>
   <g id="PathCollection_2"/>
   <g id="PathCollection_3"/>
   <g id="PathCollection_4"/>
   <g id="PathCollection_5"/>
   <g id="PathCollection_6"/>
   <g id="PathCollection_7"/>
   <g id="PathCollection_8"/>
   <g id="PathCollection_9">
    <path clip-path="url(#pa28ea9b819)" d="M 675.354795 160.254887 
C 676.540819 160.254887 677.678427 159.783675 678.517072 158.945029 
C 679.355718 158.106383 679.826931 156.968776 679.826931 155.782751 
C 679.826931 154.596727 679.355718 153.45912 678.517072 152.620474 
C 677.678427 151.781828 676.540819 151.310615 675.354795 151.310615 
C 674.16877 151.310615 673.031163 151.781828 672.192517 152.620474 
C 671.353871 153.45912 670.882659 154.596727 670.882659 155.782751 
C 670.882659 156.968776 671.353871 158.106383 672.192517 158.945029 
C 673.031163 159.783675 674.16877 160.254887 675.354795 160.254887 
z
" style="fill:none;stroke:#000000;stroke-width:0.5;"/>
   </g>
   <g id="PathCollection_10">
    <path clip-path="url(#pa28ea9b819)" d="M 600.744338 231.853447 
C 601.930362 231.853447 603.06797 231.382235 603.906616 230.543589 
C 604.745261 229.704943 605.216474 228.567336 605.216474 227.381311 
C 605.216474 226.195287 604.745261 225.05768 603.906616 224.219034 
C 603.06797 223.380388 601.930362 222.909175 600.744338 222.909175 
C 599.558314 222.909175 598.420706 223.380388 597.58206 224.219034 
C 596.743414 225.05768 596.272202 226.195287 596.272202 227.381311 
C 596.272202 228.567336 596.743414 229.704943 597.58206 230.543589 
C 598.420706 231.382235 599.558314 231.853447 600.744338 231.853447 
z
" style="fill:none;stroke:#000000;stroke-width:0.5;"/>
   </g>
   <g id="PathCollection_11">
    <path clip-path="url(#pa28ea9b819)" d="M 585.008314 281.622135 
C 586.194339 281.622135 587.331946 281.150923 588.170592 280.312277 
C 589.009238 279.473631 589.48045 278.336024 589.48045 277.149999 
C 589.48045 275.963975 589.009238 274.826368 588.170592 273.987722 
C 587.331946 273.149076 586.194339 272.677863 585.008314 272.677863 
C 583.82229 272.677863 582.684682 273.149076 581.846037 273.987722 
C 581.007391 274.826368 580.536178 275.963975 580.536178 277.149999 
C 580.536178 278.336024 581.007391 279.473631 581.846037 280.312277 
C 582.684682 281.150923 583.82229 281.622135 585.008314 281.622135 
z
" style="fill:none;stroke:#000000;stroke-width:0.5;"/>
   </g>
   <g id="PathCollection_12">
    <path clip-path="url(#pa28ea9b819)" d="M 569.543601 202.936116 
C 570.729626 202.936116 571.867233 202.464904 572.705879 201.626258 
C 573.544525 200.787612 574.015737 199.650005 574.015737 198.46398 
C 574.015737 197.277956 573.544525 196.140348 572.705879 195.301703 
C 571.867233 194.463057 570.729626 193.991844 569.543601 193.991844 
C 568.357577 193.991844 567.21997 194.463057 566.381324 195.301703 
C 565.542678 196.140348 565.071465 197.277956 565.071465 198.46398 
C 565.071465 199.650005 565.542678 200.787612 566.381324 201.626258 
C 567.21997 202.464904 568.357577 202.936116 569.543601 202.936116 
z
" style="fill:none;stroke:#000000;stroke-width:0.5;"/>
   </g>
   <g id="PathCollection_13">
    <path clip-path="url(#pa28ea9b819)" d="M 465.088962 257.795759 
C 466.274986 257.795759 467.412594 257.324546 468.251239 256.4859 
C 469.089885 255.647255 469.561098 254.509647 469.561098 253.323623 
C 469.561098 252.137598 469.089885 250.999991 468.251239 250.161345 
C 467.412594 249.322699 466.274986 248.851487 465.088962 248.851487 
C 463.902937 248.851487 462.76533 249.322699 461.926684 250.161345 
C 461.088038 250.999991 460.616826 252.137598 460.616826 253.323623 
C 460.616826 254.509647 461.088038 255.647255 461.926684 256.4859 
C 462.76533 257.324546 463.902937 257.795759 465.088962 257.795759 
z
" style="fill:none;stroke:#000000;stroke-width:0.5;"/>
   </g>
   <g id="PathCollection_14">
    <path clip-path="url(#pa28ea9b819)" d="M 413.594181 199.807101 
C 414.780205 199.807101 415.917813 199.335888 416.756459 198.497242 
C 417.595104 197.658597 418.066317 196.520989 418.066317 195.334965 
C 418.066317 194.14894 417.595104 193.011333 416.756459 192.172687 
C 415.917813 191.334041 414.780205 190.862829 413.594181 190.862829 
C 412.408157 190.862829 411.270549 191.334041 410.431903 192.172687 
C 409.593257 193.011333 409.122045 194.14894 409.122045 195.334965 
C 409.122045 196.520989 409.593257 197.658597 410.431903 198.497242 
C 411.270549 199.335888 412.408157 199.807101 413.594181 199.807101 
z
" style="fill:none;stroke:#000000;stroke-width:0.5;"/>
   </g>
   <g id="PathCollection_15">
    <path clip-path="url(#pa28ea9b819)" d="M 409.066909 270.129528 
C 410.252933 270.129528 411.390541 269.658316 412.229186 268.81967 
C 413.067832 267.981024 413.539045 266.843417 413.539045 265.657392 
C 413.539045 264.471368 413.067832 263.333761 412.229186 262.495115 
C 411.390541 261.656469 410.252933 261.185257 409.066909 261.185257 
C 407.880884 261.185257 406.743277 261.656469 405.904631 262.495115 
C 405.065985 263.333761 404.594773 264.471368 404.594773 265.657392 
C 404.594773 266.843417 405.065985 267.981024 405.904631 268.81967 
C 406.743277 269.658316 407.880884 270.129528 409.066909 270.129528 
z
" style="fill:none;stroke:#000000;stroke-width:0.5;"/>
   </g>
   <g id="PathCollection_16">
    <path clip-path="url(#pa28ea9b819)" d="M 384.010456 190.486616 
C 385.196481 190.486616 386.334088 190.015404 387.172734 189.176758 
C 388.01138 188.338112 388.482592 187.200505 388.482592 186.01448 
C 388.482592 184.828456 388.01138 183.690848 387.172734 182.852203 
C 386.334088 182.013557 385.196481 181.542344 384.010456 181.542344 
C 382.824432 181.542344 381.686825 182.013557 380.848179 182.852203 
C 380.009533 183.690848 379.538321 184.828456 379.538321 186.01448 
C 379.538321 187.200505 380.009533 188.338112 380.848179 189.176758 
C 381.686825 190.015404 382.824432 190.486616 384.010456 190.486616 
z
" style="fill:none;stroke:#000000;stroke-width:0.5;"/>
   </g>
   <g id="patch_3">
    <path d="M 62.25 373 
L 62.25 10.8 
" style="fill:none;stroke:#ffffff;stroke-linecap:square;stroke-linejoin:miter;"/>
   </g>
   <g id="patch_4">
    <path d="M 709.2 373 
L 709.2 10.8 
" style="fill:none;stroke:#ffffff;stroke-linecap:square;stroke-linejoin:miter;"/>
   </g>
   <g id="patch_5">
    <path d="M 62.25 373 
L 709.2 373 
" style="fill:none;stroke:#ffffff;stroke-linecap:square;stroke-linejoin:miter;"/>
   </g>
   <g id="patch_6">
    <path d="M 62.25 10.8 
L 709.2 10.8 
" style="fill:none;stroke:#ffffff;stroke-linecap:square;stroke-linejoin:miter;"/>
   </g>
   <g id="text_16">
    <!-- It security -->
    <defs>
     <path d="M 9.328125 0 
L 9.328125 71.578125 
L 18.796875 71.578125 
L 18.796875 0 
z
" id="ArialMT-73"/>
    </defs>
    <g style="fill:#262626;" transform="translate(679.695767 165.215043)scale(0.11 -0.11)">
     <use xlink:href="#ArialMT-73"/>
     <use x="27.783203" xlink:href="#ArialMT-116"/>
     <use x="55.566406" xlink:href="#ArialMT-32"/>
     <use x="83.349609" xlink:href="#ArialMT-115"/>
     <use x="133.349609" xlink:href="#ArialMT-101"/>
     <use x="188.964844" xlink:href="#ArialMT-99"/>
     <use x="238.964844" xlink:href="#ArialMT-117"/>
     <use x="294.580078" xlink:href="#ArialMT-114"/>
     <use x="327.880859" xlink:href="#ArialMT-105"/>
     <use x="350.097656" xlink:href="#ArialMT-116"/>
     <use x="377.880859" xlink:href="#ArialMT-121"/>
    </g>
   </g>
   <g id="text_17">
    <!-- Business intelligence and it systems design -->
    <defs>
     <path d="M 7.328125 0 
L 7.328125 71.578125 
L 34.1875 71.578125 
Q 42.390625 71.578125 47.34375 69.40625 
Q 52.296875 67.234375 55.09375 62.71875 
Q 57.90625 58.203125 57.90625 53.265625 
Q 57.90625 48.6875 55.421875 44.625 
Q 52.9375 40.578125 47.90625 38.09375 
Q 54.390625 36.1875 57.875 31.59375 
Q 61.375 27 61.375 20.75 
Q 61.375 15.71875 59.25 11.390625 
Q 57.125 7.078125 54 4.734375 
Q 50.875 2.390625 46.15625 1.1875 
Q 41.453125 0 34.625 0 
z
M 16.796875 41.5 
L 32.28125 41.5 
Q 38.578125 41.5 41.3125 42.328125 
Q 44.921875 43.40625 46.75 45.890625 
Q 48.578125 48.390625 48.578125 52.15625 
Q 48.578125 55.71875 46.875 58.421875 
Q 45.171875 61.140625 41.984375 62.140625 
Q 38.8125 63.140625 31.109375 63.140625 
L 16.796875 63.140625 
z
M 16.796875 8.453125 
L 34.625 8.453125 
Q 39.203125 8.453125 41.0625 8.796875 
Q 44.34375 9.375 46.53125 10.734375 
Q 48.734375 12.109375 50.140625 14.71875 
Q 51.5625 17.328125 51.5625 20.75 
Q 51.5625 24.75 49.515625 27.703125 
Q 47.46875 30.671875 43.828125 31.859375 
Q 40.1875 33.0625 33.34375 33.0625 
L 16.796875 33.0625 
z
" id="ArialMT-66"/>
     <path d="M 4.984375 -4.296875 
L 13.53125 -5.5625 
Q 14.0625 -9.515625 16.5 -11.328125 
Q 19.78125 -13.765625 25.4375 -13.765625 
Q 31.546875 -13.765625 34.859375 -11.328125 
Q 38.1875 -8.890625 39.359375 -4.5 
Q 40.046875 -1.8125 39.984375 6.78125 
Q 34.234375 0 25.640625 0 
Q 14.9375 0 9.078125 7.71875 
Q 3.21875 15.4375 3.21875 26.21875 
Q 3.21875 33.640625 5.90625 39.90625 
Q 8.59375 46.1875 13.6875 49.609375 
Q 18.796875 53.03125 25.6875 53.03125 
Q 34.859375 53.03125 40.828125 45.609375 
L 40.828125 51.859375 
L 48.921875 51.859375 
L 48.921875 7.03125 
Q 48.921875 -5.078125 46.453125 -10.125 
Q 44 -15.1875 38.640625 -18.109375 
Q 33.296875 -21.046875 25.484375 -21.046875 
Q 16.21875 -21.046875 10.5 -16.875 
Q 4.78125 -12.703125 4.984375 -4.296875 
z
M 12.25 26.859375 
Q 12.25 16.65625 16.296875 11.96875 
Q 20.359375 7.28125 26.46875 7.28125 
Q 32.515625 7.28125 36.609375 11.9375 
Q 40.71875 16.609375 40.71875 26.5625 
Q 40.71875 36.078125 36.5 40.90625 
Q 32.28125 45.75 26.3125 45.75 
Q 20.453125 45.75 16.34375 40.984375 
Q 12.25 36.234375 12.25 26.859375 
z
" id="ArialMT-103"/>
    </defs>
    <g style="fill:#262626;" transform="translate(605.08531 236.813603)scale(0.11 -0.11)">
     <use xlink:href="#ArialMT-66"/>
     <use x="66.699219" xlink:href="#ArialMT-117"/>
     <use x="122.314453" xlink:href="#ArialMT-115"/>
     <use x="172.314453" xlink:href="#ArialMT-105"/>
     <use x="194.53125" xlink:href="#ArialMT-110"/>
     <use x="250.146484" xlink:href="#ArialMT-101"/>
     <use x="305.761719" xlink:href="#ArialMT-115"/>
     <use x="355.761719" xlink:href="#ArialMT-115"/>
     <use x="405.761719" xlink:href="#ArialMT-32"/>
     <use x="433.544922" xlink:href="#ArialMT-105"/>
     <use x="455.761719" xlink:href="#ArialMT-110"/>
     <use x="511.376953" xlink:href="#ArialMT-116"/>
     <use x="539.160156" xlink:href="#ArialMT-101"/>
     <use x="594.775391" xlink:href="#ArialMT-108"/>
     <use x="616.992188" xlink:href="#ArialMT-108"/>
     <use x="639.208984" xlink:href="#ArialMT-105"/>
     <use x="661.425781" xlink:href="#ArialMT-103"/>
     <use x="717.041016" xlink:href="#ArialMT-101"/>
     <use x="772.65625" xlink:href="#ArialMT-110"/>
     <use x="828.271484" xlink:href="#ArialMT-99"/>
     <use x="878.271484" xlink:href="#ArialMT-101"/>
     <use x="933.886719" xlink:href="#ArialMT-32"/>
     <use x="961.669922" xlink:href="#ArialMT-97"/>
     <use x="1017.285156" xlink:href="#ArialMT-110"/>
     <use x="1072.900391" xlink:href="#ArialMT-100"/>
     <use x="1128.515625" xlink:href="#ArialMT-32"/>
     <use x="1156.298828" xlink:href="#ArialMT-105"/>
     <use x="1178.515625" xlink:href="#ArialMT-116"/>
     <use x="1206.298828" xlink:href="#ArialMT-32"/>
     <use x="1234.082031" xlink:href="#ArialMT-115"/>
     <use x="1284.082031" xlink:href="#ArialMT-121"/>
     <use x="1334.082031" xlink:href="#ArialMT-115"/>
     <use x="1384.082031" xlink:href="#ArialMT-116"/>
     <use x="1411.865234" xlink:href="#ArialMT-101"/>
     <use x="1467.480469" xlink:href="#ArialMT-109"/>
     <use x="1550.78125" xlink:href="#ArialMT-115"/>
     <use x="1600.78125" xlink:href="#ArialMT-32"/>
     <use x="1628.564453" xlink:href="#ArialMT-100"/>
     <use x="1684.179688" xlink:href="#ArialMT-101"/>
     <use x="1739.794922" xlink:href="#ArialMT-115"/>
     <use x="1789.794922" xlink:href="#ArialMT-105"/>
     <use x="1812.011719" xlink:href="#ArialMT-103"/>
     <use x="1867.626953" xlink:href="#ArialMT-110"/>
    </g>
   </g>
   <g id="text_18">
    <!-- Software engineering -->
    <defs>
     <path d="M 16.15625 0 
L 0.296875 51.859375 
L 9.375 51.859375 
L 17.625 21.921875 
L 20.703125 10.796875 
Q 20.90625 11.625 23.390625 21.484375 
L 31.640625 51.859375 
L 40.671875 51.859375 
L 48.4375 21.78125 
L 51.03125 11.859375 
L 54 21.875 
L 62.890625 51.859375 
L 71.4375 51.859375 
L 55.21875 0 
L 46.09375 0 
L 37.84375 31.0625 
L 35.84375 39.890625 
L 25.34375 0 
z
" id="ArialMT-119"/>
    </defs>
    <g style="fill:#262626;" transform="translate(589.349286 286.582291)scale(0.11 -0.11)">
     <use xlink:href="#ArialMT-83"/>
     <use x="66.699219" xlink:href="#ArialMT-111"/>
     <use x="122.314453" xlink:href="#ArialMT-102"/>
     <use x="150.097656" xlink:href="#ArialMT-116"/>
     <use x="177.880859" xlink:href="#ArialMT-119"/>
     <use x="250.097656" xlink:href="#ArialMT-97"/>
     <use x="305.712891" xlink:href="#ArialMT-114"/>
     <use x="339.013672" xlink:href="#ArialMT-101"/>
     <use x="394.628906" xlink:href="#ArialMT-32"/>
     <use x="422.412109" xlink:href="#ArialMT-101"/>
     <use x="478.027344" xlink:href="#ArialMT-110"/>
     <use x="533.642578" xlink:href="#ArialMT-103"/>
     <use x="589.257812" xlink:href="#ArialMT-105"/>
     <use x="611.474609" xlink:href="#ArialMT-110"/>
     <use x="667.089844" xlink:href="#ArialMT-101"/>
     <use x="722.705078" xlink:href="#ArialMT-101"/>
     <use x="778.320312" xlink:href="#ArialMT-114"/>
     <use x="811.621094" xlink:href="#ArialMT-105"/>
     <use x="833.837891" xlink:href="#ArialMT-110"/>
     <use x="889.453125" xlink:href="#ArialMT-103"/>
    </g>
   </g>
   <g id="text_19">
    <!-- Finance -->
    <defs>
     <path d="M 8.203125 0 
L 8.203125 71.578125 
L 56.5 71.578125 
L 56.5 63.140625 
L 17.671875 63.140625 
L 17.671875 40.96875 
L 51.265625 40.96875 
L 51.265625 32.515625 
L 17.671875 32.515625 
L 17.671875 0 
z
" id="ArialMT-70"/>
    </defs>
    <g style="fill:#262626;" transform="translate(573.884573 207.896272)scale(0.11 -0.11)">
     <use xlink:href="#ArialMT-70"/>
     <use x="61.083984" xlink:href="#ArialMT-105"/>
     <use x="83.300781" xlink:href="#ArialMT-110"/>
     <use x="138.916016" xlink:href="#ArialMT-97"/>
     <use x="194.53125" xlink:href="#ArialMT-110"/>
     <use x="250.146484" xlink:href="#ArialMT-99"/>
     <use x="300.146484" xlink:href="#ArialMT-101"/>
    </g>
   </g>
   <g id="text_20">
    <!-- Windows programming -->
    <defs>
     <path d="M 20.21875 0 
L 1.21875 71.578125 
L 10.9375 71.578125 
L 21.828125 24.65625 
Q 23.578125 17.28125 24.859375 10.015625 
Q 27.59375 21.484375 28.078125 23.25 
L 41.703125 71.578125 
L 53.125 71.578125 
L 63.375 35.359375 
Q 67.234375 21.875 68.953125 10.015625 
Q 70.3125 16.796875 72.515625 25.59375 
L 83.734375 71.578125 
L 93.265625 71.578125 
L 73.640625 0 
L 64.5 0 
L 49.421875 54.546875 
Q 47.515625 61.375 47.171875 62.9375 
Q 46.046875 58.015625 45.0625 54.546875 
L 29.890625 0 
z
" id="ArialMT-87"/>
    </defs>
    <g style="fill:#262626;" transform="translate(469.429934 262.755914)scale(0.11 -0.11)">
     <use xlink:href="#ArialMT-87"/>
     <use x="94.384766" xlink:href="#ArialMT-105"/>
     <use x="116.601562" xlink:href="#ArialMT-110"/>
     <use x="172.216797" xlink:href="#ArialMT-100"/>
     <use x="227.832031" xlink:href="#ArialMT-111"/>
     <use x="283.447266" xlink:href="#ArialMT-119"/>
     <use x="355.664062" xlink:href="#ArialMT-115"/>
     <use x="405.664062" xlink:href="#ArialMT-32"/>
     <use x="433.447266" xlink:href="#ArialMT-112"/>
     <use x="489.0625" xlink:href="#ArialMT-114"/>
     <use x="522.363281" xlink:href="#ArialMT-111"/>
     <use x="577.978516" xlink:href="#ArialMT-103"/>
     <use x="633.59375" xlink:href="#ArialMT-114"/>
     <use x="666.894531" xlink:href="#ArialMT-97"/>
     <use x="722.509766" xlink:href="#ArialMT-109"/>
     <use x="805.810547" xlink:href="#ArialMT-109"/>
     <use x="889.111328" xlink:href="#ArialMT-105"/>
     <use x="911.328125" xlink:href="#ArialMT-110"/>
     <use x="966.943359" xlink:href="#ArialMT-103"/>
    </g>
   </g>
   <g id="text_21">
    <!-- Civil engineering and design -->
    <defs>
     <path d="M 58.796875 25.09375 
L 68.265625 22.703125 
Q 65.28125 11.03125 57.546875 4.90625 
Q 49.8125 -1.21875 38.625 -1.21875 
Q 27.046875 -1.21875 19.796875 3.484375 
Q 12.546875 8.203125 8.765625 17.140625 
Q 4.984375 26.078125 4.984375 36.328125 
Q 4.984375 47.515625 9.25 55.828125 
Q 13.53125 64.15625 21.40625 68.46875 
Q 29.296875 72.796875 38.765625 72.796875 
Q 49.515625 72.796875 56.828125 67.328125 
Q 64.15625 61.859375 67.046875 51.953125 
L 57.71875 49.75 
Q 55.21875 57.5625 50.484375 61.125 
Q 45.75 64.703125 38.578125 64.703125 
Q 30.328125 64.703125 24.78125 60.734375 
Q 19.234375 56.78125 16.984375 50.109375 
Q 14.75 43.453125 14.75 36.375 
Q 14.75 27.25 17.40625 20.4375 
Q 20.0625 13.625 25.671875 10.25 
Q 31.296875 6.890625 37.84375 6.890625 
Q 45.796875 6.890625 51.3125 11.46875 
Q 56.84375 16.0625 58.796875 25.09375 
z
" id="ArialMT-67"/>
     <path d="M 21 0 
L 1.265625 51.859375 
L 10.546875 51.859375 
L 21.6875 20.796875 
Q 23.484375 15.765625 25 10.359375 
Q 26.171875 14.453125 28.265625 20.21875 
L 39.796875 51.859375 
L 48.828125 51.859375 
L 29.203125 0 
z
" id="ArialMT-118"/>
    </defs>
    <g style="fill:#262626;" transform="translate(417.935153 204.767256)scale(0.11 -0.11)">
     <use xlink:href="#ArialMT-67"/>
     <use x="72.216797" xlink:href="#ArialMT-105"/>
     <use x="94.433594" xlink:href="#ArialMT-118"/>
     <use x="144.433594" xlink:href="#ArialMT-105"/>
     <use x="166.650391" xlink:href="#ArialMT-108"/>
     <use x="188.867188" xlink:href="#ArialMT-32"/>
     <use x="216.650391" xlink:href="#ArialMT-101"/>
     <use x="272.265625" xlink:href="#ArialMT-110"/>
     <use x="327.880859" xlink:href="#ArialMT-103"/>
     <use x="383.496094" xlink:href="#ArialMT-105"/>
     <use x="405.712891" xlink:href="#ArialMT-110"/>
     <use x="461.328125" xlink:href="#ArialMT-101"/>
     <use x="516.943359" xlink:href="#ArialMT-101"/>
     <use x="572.558594" xlink:href="#ArialMT-114"/>
     <use x="605.859375" xlink:href="#ArialMT-105"/>
     <use x="628.076172" xlink:href="#ArialMT-110"/>
     <use x="683.691406" xlink:href="#ArialMT-103"/>
     <use x="739.306641" xlink:href="#ArialMT-32"/>
     <use x="767.089844" xlink:href="#ArialMT-97"/>
     <use x="822.705078" xlink:href="#ArialMT-110"/>
     <use x="878.320312" xlink:href="#ArialMT-100"/>
     <use x="933.935547" xlink:href="#ArialMT-32"/>
     <use x="961.71875" xlink:href="#ArialMT-100"/>
     <use x="1017.333984" xlink:href="#ArialMT-101"/>
     <use x="1072.949219" xlink:href="#ArialMT-115"/>
     <use x="1122.949219" xlink:href="#ArialMT-105"/>
     <use x="1145.166016" xlink:href="#ArialMT-103"/>
     <use x="1200.78125" xlink:href="#ArialMT-110"/>
    </g>
   </g>
   <g id="text_22">
    <!-- It systems and support -->
    <g style="fill:#262626;" transform="translate(413.407881 275.089684)scale(0.11 -0.11)">
     <use xlink:href="#ArialMT-73"/>
     <use x="27.783203" xlink:href="#ArialMT-116"/>
     <use x="55.566406" xlink:href="#ArialMT-32"/>
     <use x="83.349609" xlink:href="#ArialMT-115"/>
     <use x="133.349609" xlink:href="#ArialMT-121"/>
     <use x="183.349609" xlink:href="#ArialMT-115"/>
     <use x="233.349609" xlink:href="#ArialMT-116"/>
     <use x="261.132812" xlink:href="#ArialMT-101"/>
     <use x="316.748047" xlink:href="#ArialMT-109"/>
     <use x="400.048828" xlink:href="#ArialMT-115"/>
     <use x="450.048828" xlink:href="#ArialMT-32"/>
     <use x="477.832031" xlink:href="#ArialMT-97"/>
     <use x="533.447266" xlink:href="#ArialMT-110"/>
     <use x="589.0625" xlink:href="#ArialMT-100"/>
     <use x="644.677734" xlink:href="#ArialMT-32"/>
     <use x="672.460938" xlink:href="#ArialMT-115"/>
     <use x="722.460938" xlink:href="#ArialMT-117"/>
     <use x="778.076172" xlink:href="#ArialMT-112"/>
     <use x="833.691406" xlink:href="#ArialMT-112"/>
     <use x="889.306641" xlink:href="#ArialMT-111"/>
     <use x="944.921875" xlink:href="#ArialMT-114"/>
     <use x="978.222656" xlink:href="#ArialMT-116"/>
    </g>
   </g>
   <g id="text_23">
    <!-- Mechanical and electrical engineering -->
    <defs>
     <path d="M 7.421875 0 
L 7.421875 71.578125 
L 21.6875 71.578125 
L 38.625 20.90625 
Q 40.96875 13.8125 42.046875 10.296875 
Q 43.265625 14.203125 45.84375 21.78125 
L 62.984375 71.578125 
L 75.734375 71.578125 
L 75.734375 0 
L 66.609375 0 
L 66.609375 59.90625 
L 45.796875 0 
L 37.25 0 
L 16.546875 60.9375 
L 16.546875 0 
z
" id="ArialMT-77"/>
     <path d="M 6.59375 0 
L 6.59375 71.578125 
L 15.375 71.578125 
L 15.375 45.90625 
Q 21.53125 53.03125 30.90625 53.03125 
Q 36.671875 53.03125 40.921875 50.75 
Q 45.171875 48.484375 47 44.484375 
Q 48.828125 40.484375 48.828125 32.859375 
L 48.828125 0 
L 40.046875 0 
L 40.046875 32.859375 
Q 40.046875 39.453125 37.1875 42.453125 
Q 34.328125 45.453125 29.109375 45.453125 
Q 25.203125 45.453125 21.75 43.421875 
Q 18.3125 41.40625 16.84375 37.9375 
Q 15.375 34.46875 15.375 28.375 
L 15.375 0 
z
" id="ArialMT-104"/>
    </defs>
    <g style="fill:#262626;" transform="translate(388.351428 195.446772)scale(0.11 -0.11)">
     <use xlink:href="#ArialMT-77"/>
     <use x="83.300781" xlink:href="#ArialMT-101"/>
     <use x="138.916016" xlink:href="#ArialMT-99"/>
     <use x="188.916016" xlink:href="#ArialMT-104"/>
     <use x="244.53125" xlink:href="#ArialMT-97"/>
     <use x="300.146484" xlink:href="#ArialMT-110"/>
     <use x="355.761719" xlink:href="#ArialMT-105"/>
     <use x="377.978516" xlink:href="#ArialMT-99"/>
     <use x="427.978516" xlink:href="#ArialMT-97"/>
     <use x="483.59375" xlink:href="#ArialMT-108"/>
     <use x="505.810547" xlink:href="#ArialMT-32"/>
     <use x="533.59375" xlink:href="#ArialMT-97"/>
     <use x="589.208984" xlink:href="#ArialMT-110"/>
     <use x="644.824219" xlink:href="#ArialMT-100"/>
     <use x="700.439453" xlink:href="#ArialMT-32"/>
     <use x="728.222656" xlink:href="#ArialMT-101"/>
     <use x="783.837891" xlink:href="#ArialMT-108"/>
     <use x="806.054688" xlink:href="#ArialMT-101"/>
     <use x="861.669922" xlink:href="#ArialMT-99"/>
     <use x="911.669922" xlink:href="#ArialMT-116"/>
     <use x="939.453125" xlink:href="#ArialMT-114"/>
     <use x="972.753906" xlink:href="#ArialMT-105"/>
     <use x="994.970703" xlink:href="#ArialMT-99"/>
     <use x="1044.970703" xlink:href="#ArialMT-97"/>
     <use x="1100.585938" xlink:href="#ArialMT-108"/>
     <use x="1122.802734" xlink:href="#ArialMT-32"/>
     <use x="1150.585938" xlink:href="#ArialMT-101"/>
     <use x="1206.201172" xlink:href="#ArialMT-110"/>
     <use x="1261.816406" xlink:href="#ArialMT-103"/>
     <use x="1317.431641" xlink:href="#ArialMT-105"/>
     <use x="1339.648438" xlink:href="#ArialMT-110"/>
     <use x="1395.263672" xlink:href="#ArialMT-101"/>
     <use x="1450.878906" xlink:href="#ArialMT-101"/>
     <use x="1506.494141" xlink:href="#ArialMT-114"/>
     <use x="1539.794922" xlink:href="#ArialMT-105"/>
     <use x="1562.011719" xlink:href="#ArialMT-110"/>
     <use x="1617.626953" xlink:href="#ArialMT-103"/>
    </g>
   </g>
   <g id="legend_1">
    <g id="PathCollection_17">
     <defs>
      <path id="m635581ea75" style="stroke:#ffffff;stroke-width:2.8;"/>
     </defs>
     <g>
      <use style="fill:#ffffff;stroke:#ffffff;stroke-width:2.8;" x="92.65" xlink:href="#m635581ea75" y="32.4525"/>
     </g>
    </g>
    <g id="text_24">
     <!-- FL skill cluster -->
     <defs>
      <path d="M 7.328125 0 
L 7.328125 71.578125 
L 16.796875 71.578125 
L 16.796875 8.453125 
L 52.046875 8.453125 
L 52.046875 0 
z
" id="ArialMT-76"/>
     </defs>
     <g style="fill:#262626;" transform="translate(121.45 36.6525)scale(0.16 -0.16)">
      <use xlink:href="#ArialMT-70"/>
      <use x="61.083984" xlink:href="#ArialMT-76"/>
      <use x="116.652344" xlink:href="#ArialMT-32"/>
      <use x="144.435547" xlink:href="#ArialMT-115"/>
      <use x="194.435547" xlink:href="#ArialMT-107"/>
      <use x="244.435547" xlink:href="#ArialMT-105"/>
      <use x="266.652344" xlink:href="#ArialMT-108"/>
      <use x="288.869141" xlink:href="#ArialMT-108"/>
      <use x="311.085938" xlink:href="#ArialMT-32"/>
      <use x="338.869141" xlink:href="#ArialMT-99"/>
      <use x="388.869141" xlink:href="#ArialMT-108"/>
      <use x="411.085938" xlink:href="#ArialMT-117"/>
      <use x="466.701172" xlink:href="#ArialMT-115"/>
      <use x="516.701172" xlink:href="#ArialMT-116"/>
      <use x="544.484375" xlink:href="#ArialMT-101"/>
      <use x="600.099609" xlink:href="#ArialMT-114"/>
     </g>
    </g>
    <g id="PathCollection_18">
     <defs>
      <path d="M 0 5.6 
C 1.485137 5.6 2.909647 5.009949 3.959798 3.959798 
C 5.009949 2.909647 5.6 1.485137 5.6 0 
C 5.6 -1.485137 5.009949 -2.909647 3.959798 -3.959798 
C 2.909647 -5.009949 1.485137 -5.6 0 -5.6 
C -1.485137 -5.6 -2.909647 -5.009949 -3.959798 -3.959798 
C -5.009949 -2.909647 -5.6 -1.485137 -5.6 0 
C -5.6 1.485137 -5.009949 2.909647 -3.959798 3.959798 
C -2.909647 5.009949 -1.485137 5.6 0 5.6 
z
" id="m2d72708429" style="stroke:#5dc4c8;stroke-width:0.5;"/>
     </defs>
     <g>
      <use style="fill:#5dc4c8;stroke:#5dc4c8;stroke-width:0.5;" x="92.65" xlink:href="#m2d72708429" y="55.28"/>
     </g>
    </g>
    <g id="text_25">
     <!-- information technology -->
     <g style="fill:#262626;" transform="translate(121.45 59.48)scale(0.16 -0.16)">
      <use xlink:href="#ArialMT-105"/>
      <use x="22.216797" xlink:href="#ArialMT-110"/>
      <use x="77.832031" xlink:href="#ArialMT-102"/>
      <use x="105.615234" xlink:href="#ArialMT-111"/>
      <use x="161.230469" xlink:href="#ArialMT-114"/>
      <use x="194.53125" xlink:href="#ArialMT-109"/>
      <use x="277.832031" xlink:href="#ArialMT-97"/>
      <use x="333.447266" xlink:href="#ArialMT-116"/>
      <use x="361.230469" xlink:href="#ArialMT-105"/>
      <use x="383.447266" xlink:href="#ArialMT-111"/>
      <use x="439.0625" xlink:href="#ArialMT-110"/>
      <use x="494.677734" xlink:href="#ArialMT-32"/>
      <use x="522.460938" xlink:href="#ArialMT-116"/>
      <use x="550.244141" xlink:href="#ArialMT-101"/>
      <use x="605.859375" xlink:href="#ArialMT-99"/>
      <use x="655.859375" xlink:href="#ArialMT-104"/>
      <use x="711.474609" xlink:href="#ArialMT-110"/>
      <use x="767.089844" xlink:href="#ArialMT-111"/>
      <use x="822.705078" xlink:href="#ArialMT-108"/>
      <use x="844.921875" xlink:href="#ArialMT-111"/>
      <use x="900.537109" xlink:href="#ArialMT-103"/>
      <use x="956.152344" xlink:href="#ArialMT-121"/>
     </g>
    </g>
    <g id="PathCollection_19">
     <defs>
      <path d="M 0 5.6 
C 1.485137 5.6 2.909647 5.009949 3.959798 3.959798 
C 5.009949 2.909647 5.6 1.485137 5.6 0 
C 5.6 -1.485137 5.009949 -2.909647 3.959798 -3.959798 
C 2.909647 -5.009949 1.485137 -5.6 0 -5.6 
C -1.485137 -5.6 -2.909647 -5.009949 -3.959798 -3.959798 
C -5.009949 -2.909647 -5.6 -1.485137 -5.6 0 
C -5.6 1.485137 -5.009949 2.909647 -3.959798 3.959798 
C -2.909647 5.009949 -1.485137 5.6 0 5.6 
z
" id="mc58fcbc5bc" style="stroke:#ec5d2a;stroke-width:0.5;"/>
     </defs>
     <g>
      <use style="fill:#ec5d2a;stroke:#ec5d2a;stroke-width:0.5;" x="92.65" xlink:href="#mc58fcbc5bc" y="78.1"/>
     </g>
    </g>
    <g id="text_26">
     <!-- business administration -->
     <defs>
      <path d="M 14.703125 0 
L 6.546875 0 
L 6.546875 71.578125 
L 15.328125 71.578125 
L 15.328125 46.046875 
Q 20.90625 53.03125 29.546875 53.03125 
Q 34.328125 53.03125 38.59375 51.09375 
Q 42.875 49.171875 45.625 45.671875 
Q 48.390625 42.1875 49.953125 37.25 
Q 51.515625 32.328125 51.515625 26.703125 
Q 51.515625 13.375 44.921875 6.09375 
Q 38.328125 -1.171875 29.109375 -1.171875 
Q 19.921875 -1.171875 14.703125 6.5 
z
M 14.59375 26.3125 
Q 14.59375 17 17.140625 12.84375 
Q 21.296875 6.0625 28.375 6.0625 
Q 34.125 6.0625 38.328125 11.0625 
Q 42.53125 16.0625 42.53125 25.984375 
Q 42.53125 36.140625 38.5 40.96875 
Q 34.46875 45.796875 28.765625 45.796875 
Q 23 45.796875 18.796875 40.796875 
Q 14.59375 35.796875 14.59375 26.3125 
z
" id="ArialMT-98"/>
     </defs>
     <g style="fill:#262626;" transform="translate(121.45 82.3)scale(0.16 -0.16)">
      <use xlink:href="#ArialMT-98"/>
      <use x="55.615234" xlink:href="#ArialMT-117"/>
      <use x="111.230469" xlink:href="#ArialMT-115"/>
      <use x="161.230469" xlink:href="#ArialMT-105"/>
      <use x="183.447266" xlink:href="#ArialMT-110"/>
      <use x="239.0625" xlink:href="#ArialMT-101"/>
      <use x="294.677734" xlink:href="#ArialMT-115"/>
      <use x="344.677734" xlink:href="#ArialMT-115"/>
      <use x="394.677734" xlink:href="#ArialMT-32"/>
      <use x="422.460938" xlink:href="#ArialMT-97"/>
      <use x="478.076172" xlink:href="#ArialMT-100"/>
      <use x="533.691406" xlink:href="#ArialMT-109"/>
      <use x="616.992188" xlink:href="#ArialMT-105"/>
      <use x="639.208984" xlink:href="#ArialMT-110"/>
      <use x="694.824219" xlink:href="#ArialMT-105"/>
      <use x="717.041016" xlink:href="#ArialMT-115"/>
      <use x="767.041016" xlink:href="#ArialMT-116"/>
      <use x="794.824219" xlink:href="#ArialMT-114"/>
      <use x="828.125" xlink:href="#ArialMT-97"/>
      <use x="883.740234" xlink:href="#ArialMT-116"/>
      <use x="911.523438" xlink:href="#ArialMT-105"/>
      <use x="933.740234" xlink:href="#ArialMT-111"/>
      <use x="989.355469" xlink:href="#ArialMT-110"/>
     </g>
    </g>
    <g id="PathCollection_20">
     <defs>
      <path d="M 0 5.6 
C 1.485137 5.6 2.909647 5.009949 3.959798 3.959798 
C 5.009949 2.909647 5.6 1.485137 5.6 0 
C 5.6 -1.485137 5.009949 -2.909647 3.959798 -3.959798 
C 2.909647 -5.009949 1.485137 -5.6 0 -5.6 
C -1.485137 -5.6 -2.909647 -5.009949 -3.959798 -3.959798 
C -5.009949 -2.909647 -5.6 -1.485137 -5.6 0 
C -5.6 1.485137 -5.009949 2.909647 -3.959798 3.959798 
C -2.909647 5.009949 -1.485137 5.6 0 5.6 
z
" id="m7c10d6fd62" style="stroke:#bdd745;stroke-width:0.5;"/>
     </defs>
     <g>
      <use style="fill:#bdd745;stroke:#bdd745;stroke-width:0.5;" x="92.65" xlink:href="#m7c10d6fd62" y="100.7325"/>
     </g>
    </g>
    <g id="text_27">
     <!-- health and social care -->
     <g style="fill:#262626;" transform="translate(121.45 104.9325)scale(0.16 -0.16)">
      <use xlink:href="#ArialMT-104"/>
      <use x="55.615234" xlink:href="#ArialMT-101"/>
      <use x="111.230469" xlink:href="#ArialMT-97"/>
      <use x="166.845703" xlink:href="#ArialMT-108"/>
      <use x="189.0625" xlink:href="#ArialMT-116"/>
      <use x="216.845703" xlink:href="#ArialMT-104"/>
      <use x="272.460938" xlink:href="#ArialMT-32"/>
      <use x="300.244141" xlink:href="#ArialMT-97"/>
      <use x="355.859375" xlink:href="#ArialMT-110"/>
      <use x="411.474609" xlink:href="#ArialMT-100"/>
      <use x="467.089844" xlink:href="#ArialMT-32"/>
      <use x="494.873047" xlink:href="#ArialMT-115"/>
      <use x="544.873047" xlink:href="#ArialMT-111"/>
      <use x="600.488281" xlink:href="#ArialMT-99"/>
      <use x="650.488281" xlink:href="#ArialMT-105"/>
      <use x="672.705078" xlink:href="#ArialMT-97"/>
      <use x="728.320312" xlink:href="#ArialMT-108"/>
      <use x="750.537109" xlink:href="#ArialMT-32"/>
      <use x="778.320312" xlink:href="#ArialMT-99"/>
      <use x="828.320312" xlink:href="#ArialMT-97"/>
      <use x="883.935547" xlink:href="#ArialMT-114"/>
      <use x="917.236328" xlink:href="#ArialMT-101"/>
     </g>
    </g>
    <g id="PathCollection_21">
     <defs>
      <path d="M 0 5.6 
C 1.485137 5.6 2.909647 5.009949 3.959798 3.959798 
C 5.009949 2.909647 5.6 1.485137 5.6 0 
C 5.6 -1.485137 5.009949 -2.909647 3.959798 -3.959798 
C 2.909647 -5.009949 1.485137 -5.6 0 -5.6 
C -1.485137 -5.6 -2.909647 -5.009949 -3.959798 -3.959798 
C -5.009949 -2.909647 -5.6 -1.485137 -5.6 0 
C -5.6 1.485137 -5.009949 2.909647 -3.959798 3.959798 
C -2.909647 5.009949 -1.485137 5.6 0 5.6 
z
" id="m6e7b3d2b1b" style="stroke:#d93183;stroke-width:0.5;"/>
     </defs>
     <g>
      <use style="fill:#d93183;stroke:#d93183;stroke-width:0.5;" x="92.65" xlink:href="#m6e7b3d2b1b" y="123.365"/>
     </g>
    </g>
    <g id="text_28">
     <!-- education, sales and marketing -->
     <defs>
      <path d="M 8.890625 0 
L 8.890625 10.015625 
L 18.890625 10.015625 
L 18.890625 0 
Q 18.890625 -5.515625 16.9375 -8.90625 
Q 14.984375 -12.3125 10.75 -14.15625 
L 8.296875 -10.40625 
Q 11.078125 -9.1875 12.390625 -6.8125 
Q 13.71875 -4.4375 13.875 0 
z
" id="ArialMT-44"/>
     </defs>
     <g style="fill:#262626;" transform="translate(121.45 127.565)scale(0.16 -0.16)">
      <use xlink:href="#ArialMT-101"/>
      <use x="55.615234" xlink:href="#ArialMT-100"/>
      <use x="111.230469" xlink:href="#ArialMT-117"/>
      <use x="166.845703" xlink:href="#ArialMT-99"/>
      <use x="216.845703" xlink:href="#ArialMT-97"/>
      <use x="272.460938" xlink:href="#ArialMT-116"/>
      <use x="300.244141" xlink:href="#ArialMT-105"/>
      <use x="322.460938" xlink:href="#ArialMT-111"/>
      <use x="378.076172" xlink:href="#ArialMT-110"/>
      <use x="433.691406" xlink:href="#ArialMT-44"/>
      <use x="461.474609" xlink:href="#ArialMT-32"/>
      <use x="489.257812" xlink:href="#ArialMT-115"/>
      <use x="539.257812" xlink:href="#ArialMT-97"/>
      <use x="594.873047" xlink:href="#ArialMT-108"/>
      <use x="617.089844" xlink:href="#ArialMT-101"/>
      <use x="672.705078" xlink:href="#ArialMT-115"/>
      <use x="722.705078" xlink:href="#ArialMT-32"/>
      <use x="750.488281" xlink:href="#ArialMT-97"/>
      <use x="806.103516" xlink:href="#ArialMT-110"/>
      <use x="861.71875" xlink:href="#ArialMT-100"/>
      <use x="917.333984" xlink:href="#ArialMT-32"/>
      <use x="945.117188" xlink:href="#ArialMT-109"/>
      <use x="1028.417969" xlink:href="#ArialMT-97"/>
      <use x="1084.033203" xlink:href="#ArialMT-114"/>
      <use x="1117.333984" xlink:href="#ArialMT-107"/>
      <use x="1167.333984" xlink:href="#ArialMT-101"/>
      <use x="1222.949219" xlink:href="#ArialMT-116"/>
      <use x="1250.732422" xlink:href="#ArialMT-105"/>
      <use x="1272.949219" xlink:href="#ArialMT-110"/>
      <use x="1328.564453" xlink:href="#ArialMT-103"/>
     </g>
    </g>
    <g id="PathCollection_22">
     <defs>
      <path d="M 0 5.6 
C 1.485137 5.6 2.909647 5.009949 3.959798 3.959798 
C 5.009949 2.909647 5.6 1.485137 5.6 0 
C 5.6 -1.485137 5.009949 -2.909647 3.959798 -3.959798 
C 2.909647 -5.009949 1.485137 -5.6 0 -5.6 
C -1.485137 -5.6 -2.909647 -5.009949 -3.959798 -3.959798 
C -5.009949 -2.909647 -5.6 -1.485137 -5.6 0 
C -5.6 1.485137 -5.009949 2.909647 -3.959798 3.959798 
C -2.909647 5.009949 -1.485137 5.6 0 5.6 
z
" id="m23a4344211" style="stroke:#ac30e3;stroke-width:0.5;"/>
     </defs>
     <g>
      <use style="fill:#ac30e3;stroke:#ac30e3;stroke-width:0.5;" x="92.65" xlink:href="#m23a4344211" y="146.185"/>
     </g>
    </g>
    <g id="text_29">
     <!-- science and research -->
     <g style="fill:#262626;" transform="translate(121.45 150.385)scale(0.16 -0.16)">
      <use xlink:href="#ArialMT-115"/>
      <use x="50" xlink:href="#ArialMT-99"/>
      <use x="100" xlink:href="#ArialMT-105"/>
      <use x="122.216797" xlink:href="#ArialMT-101"/>
      <use x="177.832031" xlink:href="#ArialMT-110"/>
      <use x="233.447266" xlink:href="#ArialMT-99"/>
      <use x="283.447266" xlink:href="#ArialMT-101"/>
      <use x="339.0625" xlink:href="#ArialMT-32"/>
      <use x="366.845703" xlink:href="#ArialMT-97"/>
      <use x="422.460938" xlink:href="#ArialMT-110"/>
      <use x="478.076172" xlink:href="#ArialMT-100"/>
      <use x="533.691406" xlink:href="#ArialMT-32"/>
      <use x="561.474609" xlink:href="#ArialMT-114"/>
      <use x="594.775391" xlink:href="#ArialMT-101"/>
      <use x="650.390625" xlink:href="#ArialMT-115"/>
      <use x="700.390625" xlink:href="#ArialMT-101"/>
      <use x="756.005859" xlink:href="#ArialMT-97"/>
      <use x="811.621094" xlink:href="#ArialMT-114"/>
      <use x="844.921875" xlink:href="#ArialMT-99"/>
      <use x="894.921875" xlink:href="#ArialMT-104"/>
     </g>
    </g>
    <g id="PathCollection_23">
     <defs>
      <path d="M 0 5.6 
C 1.485137 5.6 2.909647 5.009949 3.959798 3.959798 
C 5.009949 2.909647 5.6 1.485137 5.6 0 
C 5.6 -1.485137 5.009949 -2.909647 3.959798 -3.959798 
C 2.909647 -5.009949 1.485137 -5.6 0 -5.6 
C -1.485137 -5.6 -2.909647 -5.009949 -3.959798 -3.959798 
C -5.009949 -2.909647 -5.6 -1.485137 -5.6 0 
C -5.6 1.485137 -5.009949 2.909647 -3.959798 3.959798 
C -2.909647 5.009949 -1.485137 5.6 0 5.6 
z
" id="m1d1dcf6e76" style="stroke:#f4a93d;stroke-width:0.5;"/>
     </defs>
     <g>
      <use style="fill:#f4a93d;stroke:#f4a93d;stroke-width:0.5;" x="92.65" xlink:href="#m1d1dcf6e76" y="168.8175"/>
     </g>
    </g>
    <g id="text_30">
     <!-- engineering, construction and transport -->
     <g style="fill:#262626;" transform="translate(121.45 173.0175)scale(0.16 -0.16)">
      <use xlink:href="#ArialMT-101"/>
      <use x="55.615234" xlink:href="#ArialMT-110"/>
      <use x="111.230469" xlink:href="#ArialMT-103"/>
      <use x="166.845703" xlink:href="#ArialMT-105"/>
      <use x="189.0625" xlink:href="#ArialMT-110"/>
      <use x="244.677734" xlink:href="#ArialMT-101"/>
      <use x="300.292969" xlink:href="#ArialMT-101"/>
      <use x="355.908203" xlink:href="#ArialMT-114"/>
      <use x="389.208984" xlink:href="#ArialMT-105"/>
      <use x="411.425781" xlink:href="#ArialMT-110"/>
      <use x="467.041016" xlink:href="#ArialMT-103"/>
      <use x="522.65625" xlink:href="#ArialMT-44"/>
      <use x="550.439453" xlink:href="#ArialMT-32"/>
      <use x="578.222656" xlink:href="#ArialMT-99"/>
      <use x="628.222656" xlink:href="#ArialMT-111"/>
      <use x="683.837891" xlink:href="#ArialMT-110"/>
      <use x="739.453125" xlink:href="#ArialMT-115"/>
      <use x="789.453125" xlink:href="#ArialMT-116"/>
      <use x="817.236328" xlink:href="#ArialMT-114"/>
      <use x="850.537109" xlink:href="#ArialMT-117"/>
      <use x="906.152344" xlink:href="#ArialMT-99"/>
      <use x="956.152344" xlink:href="#ArialMT-116"/>
      <use x="983.935547" xlink:href="#ArialMT-105"/>
      <use x="1006.152344" xlink:href="#ArialMT-111"/>
      <use x="1061.767578" xlink:href="#ArialMT-110"/>
      <use x="1117.382812" xlink:href="#ArialMT-32"/>
      <use x="1145.166016" xlink:href="#ArialMT-97"/>
      <use x="1200.78125" xlink:href="#ArialMT-110"/>
      <use x="1256.396484" xlink:href="#ArialMT-100"/>
      <use x="1312.011719" xlink:href="#ArialMT-32"/>
      <use x="1339.794922" xlink:href="#ArialMT-116"/>
      <use x="1367.578125" xlink:href="#ArialMT-114"/>
      <use x="1400.878906" xlink:href="#ArialMT-97"/>
      <use x="1456.494141" xlink:href="#ArialMT-110"/>
      <use x="1512.109375" xlink:href="#ArialMT-115"/>
      <use x="1562.109375" xlink:href="#ArialMT-112"/>
      <use x="1617.724609" xlink:href="#ArialMT-111"/>
      <use x="1673.339844" xlink:href="#ArialMT-114"/>
      <use x="1706.640625" xlink:href="#ArialMT-116"/>
     </g>
    </g>
   </g>
  </g>
 </g>
 <defs>
  <clipPath id="pa28ea9b819">
   <rect height="362.2" width="646.95" x="62.25" y="10.8"/>
  </clipPath>
 </defs>
</svg>
